<?xml version="1.0" encoding="UTF-8" standalone="no"?>
<!DOCTYPE svg PUBLIC "-//W3C//DTD SVG 1.1//EN"
 "http://www.w3.org/Graphics/SVG/1.1/DTD/svg11.dtd">
<!-- Generated by graphviz version 12.1.0 (20240811.2233)
 -->
<!-- Title: hot_swap_reload_current_interaction Pages: 1 -->
<svg width="3037pt" height="913pt"
 viewBox="0.00 0.00 3037.22 912.50" xmlns="http://www.w3.org/2000/svg" xmlns:xlink="http://www.w3.org/1999/xlink">
<g id="graph0" class="graph" transform="scale(1 1) rotate(0) translate(4 908.5)">
<title>hot_swap_reload_current_interaction</title>
<text text-anchor="middle" x="1514.61" y="-890.05" font-family="DejaVu Sans" font-size="11.00">MetaSonic manifest reload and hot&#45;swap interaction graph &#45; current state</text>
<g id="clust1" class="cluster">
<title>cluster_inputs</title>
<polygon fill="none" stroke="#94a3b8" points="448.66,-578 448.66,-770 617.93,-770 617.93,-578 448.66,-578"/>
<text text-anchor="middle" x="533.29" y="-755.55" font-family="DejaVu Sans" font-size="11.00">Inputs and app catalog</text>
</g>
<g id="clust2" class="cluster">
<title>cluster_planner</title>
<polygon fill="none" stroke="#60a5fa" points="793.92,-542 793.92,-670 1728,-670 1728,-542 793.92,-542"/>
<text text-anchor="middle" x="1260.96" y="-655.55" font-family="DejaVu Sans" font-size="11.00">Pure manifest reload planning</text>
</g>
<g id="clust3" class="cluster">
<title>cluster_cli</title>
<polygon fill="none" stroke="#c084fc" points="416.29,-388 416.29,-570 651.29,-570 651.29,-388 416.29,-388"/>
<text text-anchor="middle" x="533.79" y="-555.55" font-family="DejaVu Sans" font-size="11.00">Current diagnostic / smoke entry points</text>
</g>
<g id="clust4" class="cluster">
<title>cluster_construction</title>
<polygon fill="none" stroke="#22c55e" points="1769.62,-420 1769.62,-494 3021.22,-494 3021.22,-420 1769.62,-420"/>
<text text-anchor="middle" x="2395.42" y="-479.55" font-family="DejaVu Sans" font-size="11.00">Construction&#45;time session setup</text>
</g>
<g id="clust5" class="cluster">
<title>cluster_fanin</title>
<polygon fill="none" stroke="#f59e0b" points="1123.81,-8 1123.81,-190 2552.43,-190 2552.43,-8 1123.81,-8"/>
<text text-anchor="middle" x="1838.12" y="-175.55" font-family="DejaVu Sans" font-size="11.00">Current owner, queue, service, and audio state</text>
</g>
<g id="clust6" class="cluster">
<title>cluster_stopped</title>
<polygon fill="none" stroke="#ef4444" points="8,-198 8,-380 1488.98,-380 1488.98,-198 8,-198"/>
<text text-anchor="middle" x="748.49" y="-365.55" font-family="DejaVu Sans" font-size="11.00">Landed stopped&#45;audio manifest reload</text>
</g>
<g id="clust7" class="cluster">
<title>cluster_hot_swap</title>
<polygon fill="none" stroke="#14b8a6" points="1780.87,-198 1780.87,-412 2872.2,-412 2872.2,-198 1780.87,-198"/>
<text text-anchor="middle" x="2326.54" y="-397.55" font-family="DejaVu Sans" font-size="11.00">Existing command&#45;level hot&#45;swap runtime path</text>
</g>
<g id="clust8" class="cluster">
<title>cluster_preserving_manifest</title>
<polygon fill="none" stroke="#22c55e" points="8,-778 8,-875 1281.83,-875 1281.83,-778 8,-778"/>
<text text-anchor="middle" x="644.92" y="-860.55" font-family="DejaVu Sans" font-size="11.00">Landed preserving manifest reload and selector</text>
</g>
<g id="clust9" class="cluster">
<title>cluster_open</title>
<polygon fill="none" stroke="#64748b" stroke-dasharray="5,2" points="778.92,-696 778.92,-770 1007.44,-770 1007.44,-696 778.92,-696"/>
<text text-anchor="middle" x="893.18" y="-755.55" font-family="DejaVu Sans" font-size="11.00">Still open</text>
</g>
<!-- authoring_doc -->
<g id="node1" class="node">
<title>authoring_doc</title>
<path fill="#f8fafc" stroke="#64748b" d="M581.43,-622C581.43,-622 485.16,-622 485.16,-622 479.16,-622 473.16,-616 473.16,-610 473.16,-610 473.16,-598 473.16,-598 473.16,-592 479.16,-586 485.16,-586 485.16,-586 581.43,-586 581.43,-586 587.43,-586 593.43,-592 593.43,-598 593.43,-598 593.43,-610 593.43,-610 593.43,-616 587.43,-622 581.43,-622"/>
<text text-anchor="middle" x="533.29" y="-607.25" font-family="DejaVu Sans" font-size="10.00">AuthoringManifestDoc</text>
<text text-anchor="middle" x="533.29" y="-594.5" font-family="DejaVu Sans" font-size="10.00">(JSON or in&#45;memory)</text>
</g>
<!-- plan_manifest -->
<g id="node4" class="node">
<title>plan_manifest</title>
<path fill="#f8fafc" stroke="#64748b" d="M972.44,-622C972.44,-622 813.92,-622 813.92,-622 807.92,-622 801.92,-616 801.92,-610 801.92,-610 801.92,-598 801.92,-598 801.92,-592 807.92,-586 813.92,-586 813.92,-586 972.44,-586 972.44,-586 978.44,-586 984.44,-592 984.44,-598 984.44,-598 984.44,-610 984.44,-610 984.44,-616 978.44,-622 972.44,-622"/>
<text text-anchor="middle" x="893.18" y="-607.25" font-family="DejaVu Sans" font-size="10.00">planManifestReload</text>
<text text-anchor="middle" x="893.18" y="-594.5" font-family="DejaVu Sans" font-size="10.00">MetaSonic.Session.ManifestReload</text>
</g>
<!-- authoring_doc&#45;&gt;plan_manifest -->
<g id="edge1" class="edge">
<title>authoring_doc&#45;&gt;plan_manifest</title>
<path fill="none" stroke="#475569" d="M593.79,-604C648,-604 729.13,-604 793.12,-604"/>
<polygon fill="#475569" stroke="#475569" points="793.12,-606.45 800.12,-604 793.12,-601.55 793.12,-606.45"/>
</g>
<!-- demo_catalog -->
<g id="node2" class="node">
<title>demo_catalog</title>
<path fill="#f8fafc" stroke="#64748b" d="M597.93,-740C597.93,-740 468.66,-740 468.66,-740 462.66,-740 456.66,-734 456.66,-728 456.66,-728 456.66,-716 456.66,-716 456.66,-710 462.66,-704 468.66,-704 468.66,-704 597.93,-704 597.93,-704 603.93,-704 609.93,-710 609.93,-716 609.93,-716 609.93,-728 609.93,-728 609.93,-734 603.93,-740 597.93,-740"/>
<text text-anchor="middle" x="533.29" y="-725.25" font-family="DejaVu Sans" font-size="10.00">demoManifestReloadCatalog</text>
<text text-anchor="middle" x="533.29" y="-712.5" font-family="DejaVu Sans" font-size="10.00">App.Demos</text>
</g>
<!-- demo_catalog&#45;&gt;plan_manifest -->
<g id="edge2" class="edge">
<title>demo_catalog&#45;&gt;plan_manifest</title>
<path fill="none" stroke="#475569" d="M610.21,-706.05C623.97,-702.71 638.12,-698.99 651.29,-695 717.96,-674.81 792.72,-645.49 841.01,-625.62"/>
<polygon fill="#475569" stroke="#475569" points="841.89,-627.91 847.43,-622.98 840.02,-623.38 841.89,-627.91"/>
</g>
<!-- reload_request -->
<g id="node3" class="node">
<title>reload_request</title>
<path fill="#f8fafc" stroke="#64748b" d="M585.18,-686.45C585.18,-686.45 481.41,-686.45 481.41,-686.45 475.41,-686.45 469.41,-680.45 469.41,-674.45 469.41,-674.45 469.41,-651.55 469.41,-651.55 469.41,-645.55 475.41,-639.55 481.41,-639.55 481.41,-639.55 585.18,-639.55 585.18,-639.55 591.18,-639.55 597.18,-645.55 597.18,-651.55 597.18,-651.55 597.18,-674.45 597.18,-674.45 597.18,-680.45 591.18,-686.45 585.18,-686.45"/>
<text text-anchor="middle" x="533.29" y="-672.62" font-family="DejaVu Sans" font-size="10.00">ManifestReloadRequest</text>
<text text-anchor="middle" x="533.29" y="-659.88" font-family="DejaVu Sans" font-size="10.00">(demo key, swap label,</text>
<text text-anchor="middle" x="533.29" y="-647.12" font-family="DejaVu Sans" font-size="10.00">resource policy)</text>
</g>
<!-- reload_request&#45;&gt;plan_manifest -->
<g id="edge3" class="edge">
<title>reload_request&#45;&gt;plan_manifest</title>
<path fill="none" stroke="#475569" d="M597.45,-652.59C651.61,-643.66 730.56,-630.64 793.12,-620.33"/>
<polygon fill="#475569" stroke="#475569" points="793.44,-622.76 799.95,-619.2 792.64,-617.93 793.44,-622.76"/>
</g>
<!-- reload_plan -->
<g id="node5" class="node">
<title>reload_plan</title>
<path fill="#f8fafc" stroke="#64748b" d="M1256.58,-640.2C1256.58,-640.2 1139.31,-640.2 1139.31,-640.2 1133.31,-640.2 1127.31,-634.2 1127.31,-628.2 1127.31,-628.2 1127.31,-579.8 1127.31,-579.8 1127.31,-573.8 1133.31,-567.8 1139.31,-567.8 1139.31,-567.8 1256.58,-567.8 1256.58,-567.8 1262.58,-567.8 1268.58,-573.8 1268.58,-579.8 1268.58,-579.8 1268.58,-628.2 1268.58,-628.2 1268.58,-634.2 1262.58,-640.2 1256.58,-640.2"/>
<text text-anchor="middle" x="1197.95" y="-626.38" font-family="DejaVu Sans" font-size="10.00">ManifestReloadPlan</text>
<text text-anchor="middle" x="1197.95" y="-613.62" font-family="DejaVu Sans" font-size="10.00">TemplateGraph</text>
<text text-anchor="middle" x="1197.95" y="-600.88" font-family="DejaVu Sans" font-size="10.00">RTGraphAdapterOptions</text>
<text text-anchor="middle" x="1197.95" y="-588.12" font-family="DejaVu Sans" font-size="10.00">ControlSurface</text>
<text text-anchor="middle" x="1197.95" y="-575.38" font-family="DejaVu Sans" font-size="10.00">ArbitrationPolicy=FifoOnly</text>
</g>
<!-- plan_manifest&#45;&gt;reload_plan -->
<g id="edge4" class="edge">
<title>plan_manifest&#45;&gt;reload_plan</title>
<path fill="none" stroke="#475569" d="M984.61,-604C1027.32,-604 1077.8,-604 1118.82,-604"/>
<polygon fill="#475569" stroke="#475569" points="1118.65,-606.45 1125.65,-604 1118.65,-601.55 1118.65,-606.45"/>
</g>
<!-- command_projection -->
<g id="node6" class="node">
<title>command_projection</title>
<path fill="#f8fafc" stroke="#64748b" d="M1486.6,-586C1486.6,-586 1371.58,-586 1371.58,-586 1365.58,-586 1359.58,-580 1359.58,-574 1359.58,-574 1359.58,-562 1359.58,-562 1359.58,-556 1365.58,-550 1371.58,-550 1371.58,-550 1486.6,-550 1486.6,-550 1492.6,-550 1498.6,-556 1498.6,-562 1498.6,-562 1498.6,-574 1498.6,-574 1498.6,-580 1492.6,-586 1486.6,-586"/>
<text text-anchor="middle" x="1429.09" y="-564.88" font-family="DejaVu Sans" font-size="10.00">manifestReloadCommand</text>
</g>
<!-- reload_plan&#45;&gt;command_projection -->
<g id="edge5" class="edge">
<title>reload_plan&#45;&gt;command_projection</title>
<path fill="none" stroke="#475569" d="M1268.94,-593C1294.94,-588.92 1324.57,-584.26 1351.16,-580.09"/>
<polygon fill="#475569" stroke="#475569" points="1351.28,-582.55 1357.81,-579.04 1350.52,-577.71 1351.28,-582.55"/>
</g>
<!-- owner_options_projection -->
<g id="node7" class="node">
<title>owner_options_projection</title>
<path fill="#f8fafc" stroke="#64748b" d="M1497.85,-640C1497.85,-640 1360.33,-640 1360.33,-640 1354.33,-640 1348.33,-634 1348.33,-628 1348.33,-628 1348.33,-616 1348.33,-616 1348.33,-610 1354.33,-604 1360.33,-604 1360.33,-604 1497.85,-604 1497.85,-604 1503.85,-604 1509.85,-610 1509.85,-616 1509.85,-616 1509.85,-628 1509.85,-628 1509.85,-634 1503.85,-640 1497.85,-640"/>
<text text-anchor="middle" x="1429.09" y="-618.88" font-family="DejaVu Sans" font-size="10.00">manifestSessionOwnerOptions</text>
</g>
<!-- reload_plan&#45;&gt;owner_options_projection -->
<g id="edge7" class="edge">
<title>reload_plan&#45;&gt;owner_options_projection</title>
<path fill="none" stroke="#475569" d="M1268.94,-609.5C1291.31,-611.26 1316.37,-613.22 1339.86,-615.07"/>
<polygon fill="#475569" stroke="#475569" points="1339.42,-617.49 1346.59,-615.6 1339.8,-612.61 1339.42,-617.49"/>
</g>
<!-- construct_from_plan -->
<g id="node12" class="node">
<title>construct_from_plan</title>
<path fill="#f8fafc" stroke="#64748b" d="M1948.14,-464C1948.14,-464 1789.62,-464 1789.62,-464 1783.62,-464 1777.62,-458 1777.62,-452 1777.62,-452 1777.62,-440 1777.62,-440 1777.62,-434 1783.62,-428 1789.62,-428 1789.62,-428 1948.14,-428 1948.14,-428 1954.14,-428 1960.14,-434 1960.14,-440 1960.14,-440 1960.14,-452 1960.14,-452 1960.14,-458 1954.14,-464 1948.14,-464"/>
<text text-anchor="middle" x="1868.88" y="-449.25" font-family="DejaVu Sans" font-size="10.00">constructManifestSessionFromPlan</text>
<text text-anchor="middle" x="1868.88" y="-436.5" font-family="DejaVu Sans" font-size="10.00">ManifestReload.Construct</text>
</g>
<!-- reload_plan&#45;&gt;construct_from_plan -->
<g id="edge11" class="edge">
<title>reload_plan&#45;&gt;construct_from_plan</title>
<path fill="none" stroke="#475569" d="M1269.03,-631.08C1377.93,-668.38 1590.83,-721.82 1740.62,-636 1804.89,-599.18 1843.07,-515.12 1859.06,-472.23"/>
<polygon fill="#475569" stroke="#475569" points="1861.36,-473.06 1861.44,-465.64 1856.75,-471.39 1861.36,-473.06"/>
</g>
<!-- preserving_manifest_helper -->
<g id="node42" class="node">
<title>preserving_manifest_helper</title>
<path fill="#f8fafc" stroke="#64748b" d="M990.06,-824C990.06,-824 796.29,-824 796.29,-824 790.29,-824 784.29,-818 784.29,-812 784.29,-812 784.29,-800 784.29,-800 784.29,-794 790.29,-788 796.29,-788 796.29,-788 990.06,-788 990.06,-788 996.06,-788 1002.06,-794 1002.06,-800 1002.06,-800 1002.06,-812 1002.06,-812 1002.06,-818 996.06,-824 990.06,-824"/>
<text text-anchor="middle" x="893.18" y="-809.25" font-family="DejaVu Sans" font-size="10.00">reloadManifestSessionPreservingHotSwap</text>
<text text-anchor="middle" x="893.18" y="-796.5" font-family="DejaVu Sans" font-size="10.00">submit plan through live fan&#45;in</text>
</g>
<!-- reload_plan&#45;&gt;preserving_manifest_helper -->
<g id="edge51" class="edge">
<title>reload_plan&#45;&gt;preserving_manifest_helper</title>
<path fill="none" stroke="#475569" d="M1165.71,-640.54C1130.85,-679.1 1070.93,-739.04 1007.44,-774 1000.25,-777.95 992.54,-781.45 984.64,-784.55"/>
<polygon fill="#475569" stroke="#475569" points="983.81,-782.24 978.11,-786.98 985.52,-786.83 983.81,-782.24"/>
<text text-anchor="middle" x="1043.31" y="-766.26" font-family="DejaVu Sans" font-size="9.00">plan input</text>
</g>
<!-- cmd_hot_swap -->
<g id="node8" class="node">
<title>cmd_hot_swap</title>
<path fill="#f8fafc" stroke="#64748b" d="M1708,-596.45C1708,-596.45 1579.48,-596.45 1579.48,-596.45 1573.48,-596.45 1567.48,-590.45 1567.48,-584.45 1567.48,-584.45 1567.48,-561.55 1567.48,-561.55 1567.48,-555.55 1573.48,-549.55 1579.48,-549.55 1579.48,-549.55 1708,-549.55 1708,-549.55 1714,-549.55 1720,-555.55 1720,-561.55 1720,-561.55 1720,-584.45 1720,-584.45 1720,-590.45 1714,-596.45 1708,-596.45"/>
<text text-anchor="middle" x="1643.74" y="-582.62" font-family="DejaVu Sans" font-size="10.00">CmdHotSwap /</text>
<text text-anchor="middle" x="1643.74" y="-569.88" font-family="DejaVu Sans" font-size="10.00">CmdHotSwapPreservingOnly</text>
<text text-anchor="middle" x="1643.74" y="-557.12" font-family="DejaVu Sans" font-size="10.00">SwapLabel + TemplateGraph</text>
</g>
<!-- command_projection&#45;&gt;cmd_hot_swap -->
<g id="edge6" class="edge">
<title>command_projection&#45;&gt;cmd_hot_swap</title>
<path fill="none" stroke="#475569" d="M1498.84,-569.62C1517.95,-570.07 1538.92,-570.56 1558.79,-571.03"/>
<polygon fill="#475569" stroke="#475569" points="1558.67,-573.47 1565.73,-571.19 1558.78,-568.58 1558.67,-573.47"/>
</g>
<!-- admit_hot_swap -->
<g id="node33" class="node">
<title>admit_hot_swap</title>
<path fill="#f8fafc" stroke="#64748b" d="M1936.89,-256C1936.89,-256 1800.87,-256 1800.87,-256 1794.87,-256 1788.87,-250 1788.87,-244 1788.87,-244 1788.87,-232 1788.87,-232 1788.87,-226 1794.87,-220 1800.87,-220 1800.87,-220 1936.89,-220 1936.89,-220 1942.89,-220 1948.89,-226 1948.89,-232 1948.89,-232 1948.89,-244 1948.89,-244 1948.89,-250 1942.89,-256 1936.89,-256"/>
<text text-anchor="middle" x="1868.88" y="-241.25" font-family="DejaVu Sans" font-size="10.00">admitSessionCommand</text>
<text text-anchor="middle" x="1868.88" y="-228.5" font-family="DejaVu Sans" font-size="10.00">CmdHotSwap &#45;&gt; PlanHotSwap</text>
</g>
<!-- cmd_hot_swap&#45;&gt;admit_hot_swap -->
<g id="edge38" class="edge">
<title>cmd_hot_swap&#45;&gt;admit_hot_swap</title>
<path fill="none" stroke="#475569" d="M1647.34,-549.42C1654.95,-492.06 1682.45,-344.18 1769.62,-266 1773.26,-262.74 1777.25,-259.85 1781.48,-257.3"/>
<polygon fill="#475569" stroke="#475569" points="1782.49,-259.54 1787.47,-254.04 1780.15,-255.24 1782.49,-259.54"/>
</g>
<!-- cli_plan -->
<g id="node9" class="node">
<title>cli_plan</title>
<path fill="#f8fafc" stroke="#64748b" d="M591.55,-540C591.55,-540 475.03,-540 475.03,-540 469.03,-540 463.03,-534 463.03,-528 463.03,-528 463.03,-516 463.03,-516 463.03,-510 469.03,-504 475.03,-504 475.03,-504 591.55,-504 591.55,-504 597.55,-504 603.55,-510 603.55,-516 603.55,-516 603.55,-528 603.55,-528 603.55,-534 597.55,-540 591.55,-540"/>
<text text-anchor="middle" x="533.29" y="-525.25" font-family="DejaVu Sans" font-size="10.00">&#45;&#45;manifest&#45;reload&#45;plan</text>
<text text-anchor="middle" x="533.29" y="-512.5" font-family="DejaVu Sans" font-size="10.00">&#45;&#45;manifest&#45;reload&#45;plan&#45;file</text>
</g>
<!-- cli_plan&#45;&gt;plan_manifest -->
<g id="edge8" class="edge">
<title>cli_plan&#45;&gt;plan_manifest</title>
<path fill="none" stroke="#475569" d="M603.72,-537.91C660.72,-550.97 741.8,-569.55 803.5,-583.68"/>
<polygon fill="#475569" stroke="#475569" points="802.84,-586.04 810.21,-585.22 803.94,-581.27 802.84,-586.04"/>
</g>
<!-- cli_construct -->
<g id="node10" class="node">
<title>cli_construct</title>
<path fill="#f8fafc" stroke="#64748b" d="M590.8,-486C590.8,-486 475.78,-486 475.78,-486 469.78,-486 463.78,-480 463.78,-474 463.78,-474 463.78,-462 463.78,-462 463.78,-456 469.78,-450 475.78,-450 475.78,-450 590.8,-450 590.8,-450 596.8,-450 602.8,-456 602.8,-462 602.8,-462 602.8,-474 602.8,-474 602.8,-480 596.8,-486 590.8,-486"/>
<text text-anchor="middle" x="533.29" y="-464.88" font-family="DejaVu Sans" font-size="10.00">&#45;&#45;manifest&#45;session&#45;smoke</text>
</g>
<!-- cli_construct&#45;&gt;construct_from_plan -->
<g id="edge9" class="edge">
<title>cli_construct&#45;&gt;construct_from_plan</title>
<path fill="none" stroke="#475569" d="M603.1,-459.1C675.06,-450.58 791.35,-439 892.18,-439 892.18,-439 892.18,-439 1644.74,-439 1685.44,-439 1730.31,-440.18 1769.07,-441.57"/>
<polygon fill="#475569" stroke="#475569" points="1768.65,-444 1775.73,-441.81 1768.83,-439.11 1768.65,-444"/>
</g>
<!-- cli_stopped_smoke -->
<g id="node11" class="node">
<title>cli_stopped_smoke</title>
<path fill="#f8fafc" stroke="#64748b" d="M624.55,-432C624.55,-432 442.03,-432 442.03,-432 436.03,-432 430.03,-426 430.03,-420 430.03,-420 430.03,-408 430.03,-408 430.03,-402 436.03,-396 442.03,-396 442.03,-396 624.55,-396 624.55,-396 630.55,-396 636.55,-402 636.55,-408 636.55,-408 636.55,-420 636.55,-420 636.55,-426 630.55,-432 624.55,-432"/>
<text text-anchor="middle" x="533.29" y="-410.88" font-family="DejaVu Sans" font-size="10.00">&#45;&#45;manifest&#45;stopped&#45;audio&#45;reload&#45;smoke</text>
</g>
<!-- reload_stopped -->
<g id="node30" class="node">
<title>reload_stopped</title>
<path fill="#f8fafc" stroke="#64748b" d="M976.19,-350C976.19,-350 810.17,-350 810.17,-350 804.17,-350 798.17,-344 798.17,-338 798.17,-338 798.17,-326 798.17,-326 798.17,-320 804.17,-314 810.17,-314 810.17,-314 976.19,-314 976.19,-314 982.19,-314 988.19,-320 988.19,-326 988.19,-326 988.19,-338 988.19,-338 988.19,-344 982.19,-350 976.19,-350"/>
<text text-anchor="middle" x="893.18" y="-335.25" font-family="DejaVu Sans" font-size="10.00">reloadManifestSessionStoppedAudio</text>
<text text-anchor="middle" x="893.18" y="-322.5" font-family="DejaVu Sans" font-size="10.00">ManifestReload.Runtime</text>
</g>
<!-- cli_stopped_smoke&#45;&gt;reload_stopped -->
<g id="edge10" class="edge">
<title>cli_stopped_smoke&#45;&gt;reload_stopped</title>
<path fill="none" stroke="#475569" d="M614.61,-395.6C670.7,-382.74 745.6,-365.58 803.46,-352.33"/>
<polygon fill="#475569" stroke="#475569" points="803.76,-354.77 810.03,-350.82 802.66,-350 803.76,-354.77"/>
</g>
<!-- construct_from_plan&#45;&gt;owner_options_projection -->
<g id="edge12" class="edge">
<title>construct_from_plan&#45;&gt;owner_options_projection</title>
<path fill="none" stroke="#475569" d="M1859.58,-464.48C1842.82,-499.26 1801.3,-573.78 1740.62,-605 1672.14,-640.24 1583.56,-641.49 1518.54,-635.68"/>
<polygon fill="#475569" stroke="#475569" points="1519.04,-633.27 1511.84,-635.04 1518.57,-638.14 1519.04,-633.27"/>
</g>
<!-- with_session_owner -->
<g id="node13" class="node">
<title>with_session_owner</title>
<path fill="#f8fafc" stroke="#64748b" d="M2266.79,-464C2266.79,-464 2174.27,-464 2174.27,-464 2168.27,-464 2162.27,-458 2162.27,-452 2162.27,-452 2162.27,-440 2162.27,-440 2162.27,-434 2168.27,-428 2174.27,-428 2174.27,-428 2266.79,-428 2266.79,-428 2272.79,-428 2278.79,-434 2278.79,-440 2278.79,-440 2278.79,-452 2278.79,-452 2278.79,-458 2272.79,-464 2266.79,-464"/>
<text text-anchor="middle" x="2220.53" y="-449.25" font-family="DejaVu Sans" font-size="10.00">withSessionOwner /</text>
<text text-anchor="middle" x="2220.53" y="-436.5" font-family="DejaVu Sans" font-size="10.00">acquireSessionOwner</text>
</g>
<!-- construct_from_plan&#45;&gt;with_session_owner -->
<g id="edge13" class="edge">
<title>construct_from_plan&#45;&gt;with_session_owner</title>
<path fill="none" stroke="#475569" d="M1960.38,-446C2020.91,-446 2099.17,-446 2153.78,-446"/>
<polygon fill="#475569" stroke="#475569" points="2153.49,-448.45 2160.49,-446 2153.49,-443.55 2153.49,-448.45"/>
</g>
<!-- new_adapter -->
<g id="node14" class="node">
<title>new_adapter</title>
<path fill="#f8fafc" stroke="#64748b" d="M2497.18,-464C2497.18,-464 2409.91,-464 2409.91,-464 2403.91,-464 2397.91,-458 2397.91,-452 2397.91,-452 2397.91,-440 2397.91,-440 2397.91,-434 2403.91,-428 2409.91,-428 2409.91,-428 2497.18,-428 2497.18,-428 2503.18,-428 2509.18,-434 2509.18,-440 2509.18,-440 2509.18,-452 2509.18,-452 2509.18,-458 2503.18,-464 2497.18,-464"/>
<text text-anchor="middle" x="2453.55" y="-442.88" font-family="DejaVu Sans" font-size="10.00">newRTGraphAdapter</text>
</g>
<!-- with_session_owner&#45;&gt;new_adapter -->
<g id="edge14" class="edge">
<title>with_session_owner&#45;&gt;new_adapter</title>
<path fill="none" stroke="#475569" d="M2279.23,-446C2312.76,-446 2355.04,-446 2389.45,-446"/>
<polygon fill="#475569" stroke="#475569" points="2389.05,-448.45 2396.05,-446 2389.05,-443.55 2389.05,-448.45"/>
</g>
<!-- install_graph -->
<g id="node15" class="node">
<title>install_graph</title>
<path fill="#f8fafc" stroke="#64748b" d="M2812.08,-464C2812.08,-464 2705.31,-464 2705.31,-464 2699.31,-464 2693.31,-458 2693.31,-452 2693.31,-452 2693.31,-440 2693.31,-440 2693.31,-434 2699.31,-428 2705.31,-428 2705.31,-428 2812.08,-428 2812.08,-428 2818.08,-428 2824.08,-434 2824.08,-440 2824.08,-440 2824.08,-452 2824.08,-452 2824.08,-458 2818.08,-464 2812.08,-464"/>
<text text-anchor="middle" x="2758.69" y="-449.25" font-family="DejaVu Sans" font-size="10.00">installSessionGraph</text>
<text text-anchor="middle" x="2758.69" y="-436.5" font-family="DejaVu Sans" font-size="10.00">loader clear/rebuild path</text>
</g>
<!-- new_adapter&#45;&gt;install_graph -->
<g id="edge15" class="edge">
<title>new_adapter&#45;&gt;install_graph</title>
<path fill="none" stroke="#475569" d="M2509.44,-446C2558.43,-446 2630.55,-446 2684.45,-446"/>
<polygon fill="#475569" stroke="#475569" points="2684.42,-448.45 2691.42,-446 2684.42,-443.55 2684.42,-448.45"/>
</g>
<!-- rt_graph -->
<g id="node16" class="node">
<title>rt_graph</title>
<path fill="#ecfdf5" stroke="#64748b" d="M3001.22,-464C3001.22,-464 2913.2,-464 2913.2,-464 2907.2,-464 2901.2,-458 2901.2,-452 2901.2,-452 2901.2,-440 2901.2,-440 2901.2,-434 2907.2,-428 2913.2,-428 2913.2,-428 3001.22,-428 3001.22,-428 3007.22,-428 3013.22,-434 3013.22,-440 3013.22,-440 3013.22,-452 3013.22,-452 3013.22,-458 3007.22,-464 3001.22,-464"/>
<text text-anchor="middle" x="2957.21" y="-449.25" font-family="DejaVu Sans" font-size="10.00">RTGraph</text>
<text text-anchor="middle" x="2957.21" y="-436.5" font-family="DejaVu Sans" font-size="10.00">C++ runtime handle</text>
</g>
<!-- install_graph&#45;&gt;rt_graph -->
<g id="edge16" class="edge">
<title>install_graph&#45;&gt;rt_graph</title>
<path fill="none" stroke="#475569" d="M2824.31,-446C2846.23,-446 2870.7,-446 2892.54,-446"/>
<polygon fill="#475569" stroke="#475569" points="2892.27,-448.45 2899.27,-446 2892.27,-443.55 2892.27,-448.45"/>
</g>
<!-- fanin_service -->
<g id="node17" class="node">
<title>fanin_service</title>
<path fill="#f8fafc" stroke="#64748b" d="M1252.08,-158C1252.08,-158 1143.81,-158 1143.81,-158 1137.81,-158 1131.81,-152 1131.81,-146 1131.81,-146 1131.81,-134 1131.81,-134 1131.81,-128 1137.81,-122 1143.81,-122 1143.81,-122 1252.08,-122 1252.08,-122 1258.08,-122 1264.08,-128 1264.08,-134 1264.08,-134 1264.08,-146 1264.08,-146 1264.08,-152 1258.08,-158 1252.08,-158"/>
<text text-anchor="middle" x="1197.95" y="-143.25" font-family="DejaVu Sans" font-size="10.00">SessionFanInService</text>
<text text-anchor="middle" x="1197.95" y="-130.5" font-family="DejaVu Sans" font-size="10.00">background drain worker</text>
</g>
<!-- fanin_host -->
<g id="node18" class="node">
<title>fanin_host</title>
<path fill="#f8fafc" stroke="#64748b" d="M1495.6,-160.44C1495.6,-160.44 1362.58,-160.44 1362.58,-160.44 1356.58,-160.44 1350.58,-154.44 1350.58,-148.44 1350.58,-148.44 1350.58,-125.56 1350.58,-125.56 1350.58,-119.56 1356.58,-113.56 1362.58,-113.56 1362.58,-113.56 1495.6,-113.56 1495.6,-113.56 1501.6,-113.56 1507.6,-119.56 1507.6,-125.56 1507.6,-125.56 1507.6,-148.44 1507.6,-148.44 1507.6,-154.44 1501.6,-160.44 1495.6,-160.44"/>
<text text-anchor="middle" x="1429.09" y="-146.62" font-family="DejaVu Sans" font-size="10.00">SessionFanInHost</text>
<text text-anchor="middle" x="1429.09" y="-133.88" font-family="DejaVu Sans" font-size="10.00">MVar: owner + queue +</text>
<text text-anchor="middle" x="1429.09" y="-121.12" font-family="DejaVu Sans" font-size="10.00">reload status + audio&#45;running</text>
</g>
<!-- fanin_service&#45;&gt;fanin_host -->
<g id="edge17" class="edge">
<title>fanin_service&#45;&gt;fanin_host</title>
<path fill="none" stroke="#475569" d="M1264.3,-139.14C1288.53,-138.83 1316.39,-138.46 1342.18,-138.12"/>
<polygon fill="#475569" stroke="#475569" points="1341.99,-140.58 1348.96,-138.04 1341.93,-135.68 1341.99,-140.58"/>
</g>
<!-- session_queue -->
<g id="node19" class="node">
<title>session_queue</title>
<path fill="#f8fafc" stroke="#64748b" d="M1697.12,-106C1697.12,-106 1590.35,-106 1590.35,-106 1584.35,-106 1578.35,-100 1578.35,-94 1578.35,-94 1578.35,-82 1578.35,-82 1578.35,-76 1584.35,-70 1590.35,-70 1590.35,-70 1697.12,-70 1697.12,-70 1703.12,-70 1709.12,-76 1709.12,-82 1709.12,-82 1709.12,-94 1709.12,-94 1709.12,-100 1703.12,-106 1697.12,-106"/>
<text text-anchor="middle" x="1643.74" y="-91.25" font-family="DejaVu Sans" font-size="10.00">SessionCommandQueue</text>
<text text-anchor="middle" x="1643.74" y="-78.5" font-family="DejaVu Sans" font-size="10.00">bounded FIFO</text>
</g>
<!-- fanin_host&#45;&gt;session_queue -->
<g id="edge18" class="edge">
<title>fanin_host&#45;&gt;session_queue</title>
<path fill="none" stroke="#475569" d="M1508.01,-119.75C1515.06,-118.15 1522.09,-116.55 1528.85,-115 1542.18,-111.94 1556.37,-108.62 1570.04,-105.39"/>
<polygon fill="#475569" stroke="#475569" points="1570.31,-107.85 1576.55,-103.85 1569.18,-103.08 1570.31,-107.85"/>
</g>
<!-- session_owner -->
<g id="node20" class="node">
<title>session_owner</title>
<path fill="#f8fafc" stroke="#64748b" d="M1692.25,-160C1692.25,-160 1595.23,-160 1595.23,-160 1589.23,-160 1583.23,-154 1583.23,-148 1583.23,-148 1583.23,-136 1583.23,-136 1583.23,-130 1589.23,-124 1595.23,-124 1595.23,-124 1692.25,-124 1692.25,-124 1698.25,-124 1704.25,-130 1704.25,-136 1704.25,-136 1704.25,-148 1704.25,-148 1704.25,-154 1698.25,-160 1692.25,-160"/>
<text text-anchor="middle" x="1643.74" y="-145.25" font-family="DejaVu Sans" font-size="10.00">SessionOwner</text>
<text text-anchor="middle" x="1643.74" y="-132.5" font-family="DejaVu Sans" font-size="10.00">single&#45;threaded owner</text>
</g>
<!-- fanin_host&#45;&gt;session_owner -->
<g id="edge19" class="edge">
<title>fanin_host&#45;&gt;session_owner</title>
<path fill="none" stroke="#475569" d="M1508.06,-138.83C1529.83,-139.35 1553.3,-139.9 1574.46,-140.39"/>
<polygon fill="#475569" stroke="#475569" points="1574.19,-142.84 1581.25,-140.55 1574.3,-137.94 1574.19,-142.84"/>
</g>
<!-- audio_lifecycle -->
<g id="node24" class="node">
<title>audio_lifecycle</title>
<path fill="#f8fafc" stroke="#64748b" d="M1728.62,-52C1728.62,-52 1558.85,-52 1558.85,-52 1552.85,-52 1546.85,-46 1546.85,-40 1546.85,-40 1546.85,-28 1546.85,-28 1546.85,-22 1552.85,-16 1558.85,-16 1558.85,-16 1728.62,-16 1728.62,-16 1734.62,-16 1740.62,-22 1740.62,-28 1740.62,-28 1740.62,-40 1740.62,-40 1740.62,-46 1734.62,-52 1728.62,-52"/>
<text text-anchor="middle" x="1643.74" y="-30.88" font-family="DejaVu Sans" font-size="10.00">start/stopSessionFanInHostAudioWith</text>
</g>
<!-- fanin_host&#45;&gt;audio_lifecycle -->
<g id="edge20" class="edge">
<title>fanin_host&#45;&gt;audio_lifecycle</title>
<path fill="none" stroke="#475569" d="M1468.41,-113.27C1486.85,-101.68 1509.17,-87.37 1528.85,-74 1537.01,-68.46 1537.96,-65.29 1546.85,-61 1550.94,-59.03 1555.2,-57.17 1559.55,-55.44"/>
<polygon fill="#475569" stroke="#475569" points="1560.37,-57.74 1566.04,-52.97 1558.63,-53.16 1560.37,-57.74"/>
</g>
<!-- step_owner -->
<g id="node21" class="node">
<title>step_owner</title>
<path fill="#f8fafc" stroke="#64748b" d="M1907.64,-160C1907.64,-160 1830.12,-160 1830.12,-160 1824.12,-160 1818.12,-154 1818.12,-148 1818.12,-148 1818.12,-136 1818.12,-136 1818.12,-130 1824.12,-124 1830.12,-124 1830.12,-124 1907.64,-124 1907.64,-124 1913.64,-124 1919.64,-130 1919.64,-136 1919.64,-136 1919.64,-148 1919.64,-148 1919.64,-154 1913.64,-160 1907.64,-160"/>
<text text-anchor="middle" x="1868.88" y="-138.88" font-family="DejaVu Sans" font-size="10.00">stepSessionOwner</text>
</g>
<!-- session_owner&#45;&gt;step_owner -->
<g id="edge21" class="edge">
<title>session_owner&#45;&gt;step_owner</title>
<path fill="none" stroke="#475569" d="M1704.53,-142C1737,-142 1776.99,-142 1809.28,-142"/>
<polygon fill="#475569" stroke="#475569" points="1809.22,-144.45 1816.22,-142 1809.22,-139.55 1809.22,-144.45"/>
</g>
<!-- owner_divergence -->
<g id="node40" class="node">
<title>owner_divergence</title>
<path fill="#fef2f2" stroke="#64748b" d="M2302.79,-252.44C2302.79,-252.44 2138.27,-252.44 2138.27,-252.44 2132.27,-252.44 2126.27,-246.44 2126.27,-240.44 2126.27,-240.44 2126.27,-217.56 2126.27,-217.56 2126.27,-211.56 2132.27,-205.56 2138.27,-205.56 2138.27,-205.56 2302.79,-205.56 2302.79,-205.56 2308.79,-205.56 2314.79,-211.56 2314.79,-217.56 2314.79,-217.56 2314.79,-240.44 2314.79,-240.44 2314.79,-246.44 2308.79,-252.44 2302.79,-252.44"/>
<text text-anchor="middle" x="2220.53" y="-238.62" font-family="DejaVu Sans" font-size="10.00">SessionOwner divergence</text>
<text text-anchor="middle" x="2220.53" y="-225.88" font-family="DejaVu Sans" font-size="10.00">on install failure / backend stopped /</text>
<text text-anchor="middle" x="2220.53" y="-213.12" font-family="DejaVu Sans" font-size="10.00">commit mismatch / protocol bug</text>
</g>
<!-- session_owner&#45;&gt;owner_divergence -->
<g id="edge50" class="edge">
<title>session_owner&#45;&gt;owner_divergence</title>
<path fill="none" stroke="#475569" stroke-dasharray="5,2" d="M1704.57,-155.96C1725.12,-160.48 1748.31,-165.28 1769.62,-169 1888.56,-189.75 2026.29,-207.16 2117.71,-217.79"/>
<polygon fill="#475569" stroke="#475569" points="2117.39,-220.22 2124.63,-218.59 2117.96,-215.35 2117.39,-220.22"/>
</g>
<!-- session_step -->
<g id="node22" class="node">
<title>session_step</title>
<path fill="#f8fafc" stroke="#64748b" d="M2284.41,-160C2284.41,-160 2156.64,-160 2156.64,-160 2150.64,-160 2144.64,-154 2144.64,-148 2144.64,-148 2144.64,-136 2144.64,-136 2144.64,-130 2150.64,-124 2156.64,-124 2156.64,-124 2284.41,-124 2284.41,-124 2290.41,-124 2296.41,-130 2296.41,-136 2296.41,-136 2296.41,-148 2296.41,-148 2296.41,-154 2290.41,-160 2284.41,-160"/>
<text text-anchor="middle" x="2220.53" y="-145.25" font-family="DejaVu Sans" font-size="10.00">stepSessionCommand</text>
<text text-anchor="middle" x="2220.53" y="-132.5" font-family="DejaVu Sans" font-size="10.00">admit &#45;&gt; runtime &#45;&gt; commit</text>
</g>
<!-- step_owner&#45;&gt;session_step -->
<g id="edge22" class="edge">
<title>step_owner&#45;&gt;session_step</title>
<path fill="none" stroke="#475569" d="M1919.98,-142C1976.29,-142 2068.64,-142 2135.93,-142"/>
<polygon fill="#475569" stroke="#475569" points="2135.91,-144.45 2142.91,-142 2135.91,-139.55 2135.91,-144.45"/>
</g>
<!-- session_state -->
<g id="node23" class="node">
<title>session_state</title>
<path fill="#f8fafc" stroke="#64748b" d="M2532.43,-160C2532.43,-160 2374.66,-160 2374.66,-160 2368.66,-160 2362.66,-154 2362.66,-148 2362.66,-148 2362.66,-136 2362.66,-136 2362.66,-130 2368.66,-124 2374.66,-124 2374.66,-124 2532.43,-124 2532.43,-124 2538.43,-124 2544.43,-130 2544.43,-136 2544.43,-136 2544.43,-148 2544.43,-148 2544.43,-154 2538.43,-160 2532.43,-160"/>
<text text-anchor="middle" x="2453.55" y="-145.25" font-family="DejaVu Sans" font-size="10.00">SessionState</text>
<text text-anchor="middle" x="2453.55" y="-132.5" font-family="DejaVu Sans" font-size="10.00">TemplateGraph + voices + resolve</text>
</g>
<!-- session_step&#45;&gt;session_state -->
<g id="edge23" class="edge">
<title>session_step&#45;&gt;session_state</title>
<path fill="none" stroke="#475569" d="M2296.85,-142C2315.09,-142 2334.85,-142 2353.98,-142"/>
<polygon fill="#475569" stroke="#475569" points="2353.91,-144.45 2360.91,-142 2353.91,-139.55 2353.91,-144.45"/>
</g>
<!-- run_hot_swap -->
<g id="node34" class="node">
<title>run_hot_swap</title>
<path fill="#f8fafc" stroke="#64748b" d="M1933.14,-311C1933.14,-311 1804.62,-311 1804.62,-311 1798.62,-311 1792.62,-305 1792.62,-299 1792.62,-299 1792.62,-287 1792.62,-287 1792.62,-281 1798.62,-275 1804.62,-275 1804.62,-275 1933.14,-275 1933.14,-275 1939.14,-275 1945.14,-281 1945.14,-287 1945.14,-287 1945.14,-299 1945.14,-299 1945.14,-305 1939.14,-311 1933.14,-311"/>
<text text-anchor="middle" x="1868.88" y="-289.88" font-family="DejaVu Sans" font-size="10.00">RTGraphAdapter.runHotSwap</text>
</g>
<!-- session_step&#45;&gt;run_hot_swap -->
<g id="edge40" class="edge">
<title>session_step&#45;&gt;run_hot_swap</title>
<path fill="none" stroke="#475569" d="M2182.9,-160.28C2162.94,-170.25 2137.81,-182.8 2115.39,-194 2107.39,-198 2105.58,-199.42 2097.39,-203 2045.49,-225.7 2026.17,-217.97 1978.14,-248 1968.81,-253.83 1969.64,-259.45 1960.14,-265 1956.24,-267.28 1952.14,-269.39 1947.93,-271.34"/>
<polygon fill="#475569" stroke="#475569" points="1947.06,-269.05 1941.62,-274.09 1949.02,-273.54 1947.06,-269.05"/>
</g>
<!-- reload_host -->
<g id="node25" class="node">
<title>reload_host</title>
<path fill="#f8fafc" stroke="#64748b" d="M179.02,-347C179.02,-347 28,-347 28,-347 22,-347 16,-341 16,-335 16,-335 16,-323 16,-323 16,-317 22,-311 28,-311 28,-311 179.02,-311 179.02,-311 185.02,-311 191.02,-317 191.02,-323 191.02,-323 191.02,-335 191.02,-335 191.02,-341 185.02,-347 179.02,-347"/>
<text text-anchor="middle" x="103.51" y="-332.25" font-family="DejaVu Sans" font-size="10.00">reloadManifestStoppedAudioHost</text>
<text text-anchor="middle" x="103.51" y="-319.5" font-family="DejaVu Sans" font-size="10.00">ManifestReloadHost</text>
</g>
<!-- host_ops -->
<g id="node26" class="node">
<title>host_ops</title>
<path fill="#f8fafc" stroke="#64748b" d="M372.67,-325C372.67,-325 242.65,-325 242.65,-325 236.65,-325 230.65,-319 230.65,-313 230.65,-313 230.65,-301 230.65,-301 230.65,-295 236.65,-289 242.65,-289 242.65,-289 372.67,-289 372.67,-289 378.67,-289 384.67,-295 384.67,-301 384.67,-301 384.67,-313 384.67,-313 384.67,-319 378.67,-325 372.67,-325"/>
<text text-anchor="middle" x="307.66" y="-310.25" font-family="DejaVu Sans" font-size="10.00">manifestReloadHostOps</text>
<text text-anchor="middle" x="307.66" y="-297.5" font-family="DejaVu Sans" font-size="10.00">HostStoppedAudioReloadOps</text>
</g>
<!-- reload_host&#45;&gt;host_ops -->
<g id="edge24" class="edge">
<title>reload_host&#45;&gt;host_ops</title>
<path fill="none" stroke="#475569" d="M191.41,-319.54C201.53,-318.44 211.84,-317.32 221.92,-316.22"/>
<polygon fill="#475569" stroke="#475569" points="222.13,-318.66 228.83,-315.47 221.6,-313.79 222.13,-318.66"/>
</g>
<!-- stopped_orchestrator -->
<g id="node27" class="node">
<title>stopped_orchestrator</title>
<path fill="#f8fafc" stroke="#64748b" d="M616.68,-315.44C616.68,-315.44 449.91,-315.44 449.91,-315.44 443.91,-315.44 437.91,-309.44 437.91,-303.44 437.91,-303.44 437.91,-280.56 437.91,-280.56 437.91,-274.56 443.91,-268.56 449.91,-268.56 449.91,-268.56 616.68,-268.56 616.68,-268.56 622.68,-268.56 628.68,-274.56 628.68,-280.56 628.68,-280.56 628.68,-303.44 628.68,-303.44 628.68,-309.44 622.68,-315.44 616.68,-315.44"/>
<text text-anchor="middle" x="533.29" y="-301.62" font-family="DejaVu Sans" font-size="10.00">orchestrateHostStoppedAudioReload</text>
<text text-anchor="middle" x="533.29" y="-288.88" font-family="DejaVu Sans" font-size="10.00">plan &#45;&gt; quiesce &#45;&gt; drain &#45;&gt;</text>
<text text-anchor="middle" x="533.29" y="-276.12" font-family="DejaVu Sans" font-size="10.00">stop &#45;&gt; reload &#45;&gt; start &#45;&gt; reopen</text>
</g>
<!-- host_ops&#45;&gt;stopped_orchestrator -->
<g id="edge25" class="edge">
<title>host_ops&#45;&gt;stopped_orchestrator</title>
<path fill="none" stroke="#475569" d="M384.99,-301.88C399.3,-300.92 414.47,-299.9 429.42,-298.9"/>
<polygon fill="#475569" stroke="#475569" points="429.37,-301.36 436.19,-298.45 429.05,-296.47 429.37,-301.36"/>
</g>
<!-- stopped_orchestrator&#45;&gt;plan_manifest -->
<g id="edge26" class="edge">
<title>stopped_orchestrator&#45;&gt;plan_manifest</title>
<path fill="none" stroke="#475569" d="M565.83,-315.79C589.67,-334.02 623.01,-360.02 651.29,-384 732.2,-452.6 823.65,-538.58 866.92,-579.79"/>
<polygon fill="#475569" stroke="#475569" points="865.09,-581.43 871.85,-584.49 868.47,-577.89 865.09,-581.43"/>
<text text-anchor="middle" x="713.79" y="-487.36" font-family="DejaVu Sans" font-size="9.00">prepare plan</text>
</g>
<!-- stopped_orchestrator&#45;&gt;audio_lifecycle -->
<g id="edge30" class="edge">
<title>stopped_orchestrator&#45;&gt;audio_lifecycle</title>
<path fill="none" stroke="#475569" d="M552.81,-268.48C601.53,-209.5 740.01,-60 892.18,-60 892.18,-60 892.18,-60 1430.09,-60 1465.47,-60 1503.92,-56.41 1538.27,-51.9"/>
<polygon fill="#475569" stroke="#475569" points="1538.33,-54.36 1544.94,-51 1537.68,-49.51 1538.33,-54.36"/>
<text text-anchor="middle" x="1197.95" y="-62.7" font-family="DejaVu Sans" font-size="9.00">stop old / start new</text>
</g>
<!-- ingress -->
<g id="node28" class="node">
<title>ingress</title>
<path fill="#f8fafc" stroke="#64748b" d="M953.31,-242C953.31,-242 833.04,-242 833.04,-242 827.04,-242 821.04,-236 821.04,-230 821.04,-230 821.04,-218 821.04,-218 821.04,-212 827.04,-206 833.04,-206 833.04,-206 953.31,-206 953.31,-206 959.31,-206 965.31,-212 965.31,-218 965.31,-218 965.31,-230 965.31,-230 965.31,-236 959.31,-242 953.31,-242"/>
<text text-anchor="middle" x="893.18" y="-227.25" font-family="DejaVu Sans" font-size="10.00">ManifestReloadIngress</text>
<text text-anchor="middle" x="893.18" y="-214.5" font-family="DejaVu Sans" font-size="10.00">close / resume / open&#45;fresh</text>
</g>
<!-- stopped_orchestrator&#45;&gt;ingress -->
<g id="edge27" class="edge">
<title>stopped_orchestrator&#45;&gt;ingress</title>
<path fill="none" stroke="#475569" d="M568.28,-268.14C592.85,-252.41 627.53,-233.2 661.29,-224.75 710.44,-212.46 767.33,-212.12 812.34,-214.93"/>
<polygon fill="#475569" stroke="#475569" points="811.94,-217.36 819.09,-215.38 812.28,-212.47 811.94,-217.36"/>
<text text-anchor="middle" x="713.79" y="-227.45" font-family="DejaVu Sans" font-size="9.00">quiesce</text>
</g>
<!-- stopped_orchestrator&#45;&gt;ingress -->
<g id="edge37" class="edge">
<title>stopped_orchestrator&#45;&gt;ingress</title>
<path fill="none" stroke="#475569" d="M628.95,-273.91C639.86,-271.83 650.82,-269.74 661.29,-267.75 711.57,-258.19 768.01,-247.49 812.5,-239.07"/>
<polygon fill="#475569" stroke="#475569" points="812.76,-241.51 819.18,-237.8 811.85,-236.7 812.76,-241.51"/>
<text text-anchor="middle" x="713.79" y="-270.45" font-family="DejaVu Sans" font-size="9.00">reopen or resume</text>
</g>
<!-- quiesce_drain -->
<g id="node29" class="node">
<title>quiesce_drain</title>
<path fill="#f8fafc" stroke="#64748b" d="M977.69,-296C977.69,-296 808.67,-296 808.67,-296 802.67,-296 796.67,-290 796.67,-284 796.67,-284 796.67,-272 796.67,-272 796.67,-266 802.67,-260 808.67,-260 808.67,-260 977.69,-260 977.69,-260 983.69,-260 989.69,-266 989.69,-272 989.69,-272 989.69,-284 989.69,-284 989.69,-290 983.69,-296 977.69,-296"/>
<text text-anchor="middle" x="893.18" y="-274.88" font-family="DejaVu Sans" font-size="10.00">quiesceAndDrainSessionFanInService</text>
</g>
<!-- stopped_orchestrator&#45;&gt;quiesce_drain -->
<g id="edge28" class="edge">
<title>stopped_orchestrator&#45;&gt;quiesce_drain</title>
<path fill="none" stroke="#475569" d="M628.79,-288.3C677.73,-286.39 737.61,-284.05 787.91,-282.08"/>
<polygon fill="#475569" stroke="#475569" points="787.8,-284.53 794.7,-281.81 787.61,-279.64 787.8,-284.53"/>
<text text-anchor="middle" x="713.79" y="-289.37" font-family="DejaVu Sans" font-size="9.00">drain live queue</text>
</g>
<!-- stopped_orchestrator&#45;&gt;reload_stopped -->
<g id="edge31" class="edge">
<title>stopped_orchestrator&#45;&gt;reload_stopped</title>
<path fill="none" stroke="#475569" d="M628.79,-302.56C678.22,-308.09 738.81,-314.86 789.41,-320.51"/>
<polygon fill="#475569" stroke="#475569" points="789.04,-322.94 796.26,-321.28 789.58,-318.07 789.04,-322.94"/>
<text text-anchor="middle" x="713.79" y="-320.62" font-family="DejaVu Sans" font-size="9.00">with audio stopped</text>
</g>
<!-- quiesce_drain&#45;&gt;fanin_service -->
<g id="edge29" class="edge">
<title>quiesce_drain&#45;&gt;fanin_service</title>
<path fill="none" stroke="#475569" d="M985.83,-259.55C993.27,-257.04 1000.56,-254.2 1007.44,-251 1046.08,-233.03 1048.05,-215.99 1084.56,-194 1104.04,-182.27 1126.46,-171.07 1146.12,-161.94"/>
<polygon fill="#475569" stroke="#475569" points="1147.08,-164.2 1152.42,-159.05 1145.03,-159.75 1147.08,-164.2"/>
</g>
<!-- reload_stopped&#45;&gt;owner_options_projection -->
<g id="edge32" class="edge">
<title>reload_stopped&#45;&gt;owner_options_projection</title>
<path fill="none" stroke="#475569" d="M988.62,-347.9C1081.96,-368.22 1223.23,-412.02 1311.33,-501 1342.92,-532.9 1315.82,-564.03 1348.33,-595 1349.71,-596.31 1351.15,-597.56 1352.65,-598.74"/>
<polygon fill="#475569" stroke="#475569" points="1351.16,-600.69 1358.3,-602.7 1353.97,-596.68 1351.16,-600.69"/>
</g>
<!-- fanin_reload -->
<g id="node31" class="node">
<title>fanin_reload</title>
<path fill="#f8fafc" stroke="#64748b" d="M1299.33,-252.44C1299.33,-252.44 1096.56,-252.44 1096.56,-252.44 1090.56,-252.44 1084.56,-246.44 1084.56,-240.44 1084.56,-240.44 1084.56,-217.56 1084.56,-217.56 1084.56,-211.56 1090.56,-205.56 1096.56,-205.56 1096.56,-205.56 1299.33,-205.56 1299.33,-205.56 1305.33,-205.56 1311.33,-211.56 1311.33,-217.56 1311.33,-217.56 1311.33,-240.44 1311.33,-240.44 1311.33,-246.44 1305.33,-252.44 1299.33,-252.44"/>
<text text-anchor="middle" x="1197.95" y="-238.62" font-family="DejaVu Sans" font-size="10.00">reloadSessionFanInHostOwnerStoppedAudio</text>
<text text-anchor="middle" x="1197.95" y="-225.88" font-family="DejaVu Sans" font-size="10.00">replace owner only after queue empty</text>
<text text-anchor="middle" x="1197.95" y="-213.12" font-family="DejaVu Sans" font-size="10.00">and audio stopped</text>
</g>
<!-- reload_stopped&#45;&gt;fanin_reload -->
<g id="edge33" class="edge">
<title>reload_stopped&#45;&gt;fanin_reload</title>
<path fill="none" stroke="#475569" d="M977.75,-313.55C987.82,-310.9 997.9,-308.03 1007.44,-305 1051.12,-291.12 1099.02,-271.87 1135.73,-256.22"/>
<polygon fill="#475569" stroke="#475569" points="1136.53,-258.54 1142,-253.53 1134.6,-254.04 1136.53,-258.54"/>
</g>
<!-- fanin_reload&#45;&gt;fanin_host -->
<g id="edge34" class="edge">
<title>fanin_reload&#45;&gt;fanin_host</title>
<path fill="none" stroke="#475569" d="M1280.79,-205.12C1291.15,-201.62 1301.55,-197.88 1311.33,-194 1332.89,-185.44 1355.98,-174.55 1375.88,-164.6"/>
<polygon fill="#475569" stroke="#475569" points="1376.85,-166.85 1381.99,-161.51 1374.64,-162.48 1376.85,-166.85"/>
</g>
<!-- release_acquire -->
<g id="node32" class="node">
<title>release_acquire</title>
<path fill="#f8fafc" stroke="#64748b" d="M1468.98,-244C1468.98,-244 1389.21,-244 1389.21,-244 1383.21,-244 1377.21,-238 1377.21,-232 1377.21,-232 1377.21,-220 1377.21,-220 1377.21,-214 1383.21,-208 1389.21,-208 1389.21,-208 1468.98,-208 1468.98,-208 1474.98,-208 1480.98,-214 1480.98,-220 1480.98,-220 1480.98,-232 1480.98,-232 1480.98,-238 1474.98,-244 1468.98,-244"/>
<text text-anchor="middle" x="1429.09" y="-229.25" font-family="DejaVu Sans" font-size="10.00">release old owner</text>
<text text-anchor="middle" x="1429.09" y="-216.5" font-family="DejaVu Sans" font-size="10.00">acquire new owner</text>
</g>
<!-- fanin_reload&#45;&gt;release_acquire -->
<g id="edge35" class="edge">
<title>fanin_reload&#45;&gt;release_acquire</title>
<path fill="none" stroke="#475569" d="M1311.5,-227.53C1331.15,-227.27 1350.88,-227.01 1368.37,-226.78"/>
<polygon fill="#475569" stroke="#475569" points="1368.29,-229.23 1375.26,-226.69 1368.23,-224.33 1368.29,-229.23"/>
</g>
<!-- release_acquire&#45;&gt;session_owner -->
<g id="edge36" class="edge">
<title>release_acquire&#45;&gt;session_owner</title>
<path fill="none" stroke="#475569" d="M1476.76,-207.57C1509.72,-194.55 1553.99,-177.06 1588.52,-163.42"/>
<polygon fill="#475569" stroke="#475569" points="1589.16,-165.8 1594.77,-160.95 1587.36,-161.24 1589.16,-165.8"/>
</g>
<!-- admit_hot_swap&#45;&gt;session_step -->
<g id="edge39" class="edge">
<title>admit_hot_swap&#45;&gt;session_step</title>
<path fill="none" stroke="#475569" d="M1928.75,-219.58C1944.73,-214.71 1962.07,-209.54 1978.14,-205 2031.03,-190.04 2090.8,-174.43 2137.64,-162.49"/>
<polygon fill="#475569" stroke="#475569" points="2137.98,-164.93 2144.16,-160.83 2136.78,-160.18 2137.98,-164.93"/>
</g>
<!-- preserving_probe -->
<g id="node35" class="node">
<title>preserving_probe</title>
<path fill="#f8fafc" stroke="#64748b" d="M2313.66,-317.44C2313.66,-317.44 2127.39,-317.44 2127.39,-317.44 2121.39,-317.44 2115.39,-311.44 2115.39,-305.44 2115.39,-305.44 2115.39,-282.56 2115.39,-282.56 2115.39,-276.56 2121.39,-270.56 2127.39,-270.56 2127.39,-270.56 2313.66,-270.56 2313.66,-270.56 2319.66,-270.56 2325.66,-276.56 2325.66,-282.56 2325.66,-282.56 2325.66,-305.44 2325.66,-305.44 2325.66,-311.44 2319.66,-317.44 2313.66,-317.44"/>
<text text-anchor="middle" x="2220.53" y="-303.62" font-family="DejaVu Sans" font-size="10.00">preservingHotSwapPlan</text>
<text text-anchor="middle" x="2220.53" y="-290.88" font-family="DejaVu Sans" font-size="10.00">current RTGraphAdapterState +</text>
<text text-anchor="middle" x="2220.53" y="-278.12" font-family="DejaVu Sans" font-size="10.00">target TemplateGraph + resolve preview</text>
</g>
<!-- run_hot_swap&#45;&gt;preserving_probe -->
<g id="edge41" class="edge">
<title>run_hot_swap&#45;&gt;preserving_probe</title>
<path fill="none" stroke="#475569" d="M1945.32,-293.22C1992.39,-293.35 2053.85,-293.53 2106.65,-293.68"/>
<polygon fill="#475569" stroke="#475569" points="2106.52,-296.13 2113.53,-293.7 2106.54,-291.23 2106.52,-296.13"/>
<text text-anchor="middle" x="2037.77" y="-296.35" font-family="DejaVu Sans" font-size="9.00">if preserved bindings exist</text>
</g>
<!-- fallback_clear -->
<g id="node39" class="node">
<title>fallback_clear</title>
<path fill="#fff7ed" stroke="#64748b" d="M2272.04,-382.44C2272.04,-382.44 2169.02,-382.44 2169.02,-382.44 2163.02,-382.44 2157.02,-376.44 2157.02,-370.44 2157.02,-370.44 2157.02,-347.56 2157.02,-347.56 2157.02,-341.56 2163.02,-335.56 2169.02,-335.56 2169.02,-335.56 2272.04,-335.56 2272.04,-335.56 2278.04,-335.56 2284.04,-341.56 2284.04,-347.56 2284.04,-347.56 2284.04,-370.44 2284.04,-370.44 2284.04,-376.44 2278.04,-382.44 2272.04,-382.44"/>
<text text-anchor="middle" x="2220.53" y="-368.62" font-family="DejaVu Sans" font-size="10.00">non&#45;preserving fallback</text>
<text text-anchor="middle" x="2220.53" y="-355.88" font-family="DejaVu Sans" font-size="10.00">installSessionGraph</text>
<text text-anchor="middle" x="2220.53" y="-343.12" font-family="DejaVu Sans" font-size="10.00">stop/clear/rebuild</text>
</g>
<!-- run_hot_swap&#45;&gt;fallback_clear -->
<g id="edge47" class="edge">
<title>run_hot_swap&#45;&gt;fallback_clear</title>
<path fill="none" stroke="#475569" d="M1945.32,-307.24C2005.62,-318.62 2089.54,-334.46 2148.62,-345.62"/>
<polygon fill="#475569" stroke="#475569" points="2147.96,-347.98 2155.3,-346.88 2148.87,-343.17 2147.96,-347.98"/>
<text text-anchor="middle" x="2037.77" y="-338.47" font-family="DejaVu Sans" font-size="9.00">if no preserved bindings</text>
</g>
<!-- run_hot_swap&#45;&gt;owner_divergence -->
<g id="edge49" class="edge">
<title>run_hot_swap&#45;&gt;owner_divergence</title>
<path fill="none" stroke="#475569" stroke-dasharray="5,2" d="M1945.32,-279.19C1995.74,-269.96 2062.67,-257.71 2117.79,-247.62"/>
<polygon fill="#475569" stroke="#475569" points="2117.89,-250.09 2124.34,-246.42 2117.01,-245.27 2117.89,-250.09"/>
<text text-anchor="middle" x="2037.77" y="-275" font-family="DejaVu Sans" font-size="9.00">terminal failures</text>
</g>
<!-- preserving_builder -->
<g id="node36" class="node">
<title>preserving_builder</title>
<path fill="#f8fafc" stroke="#64748b" d="M2509.93,-323C2509.93,-323 2397.16,-323 2397.16,-323 2391.16,-323 2385.16,-317 2385.16,-311 2385.16,-311 2385.16,-299 2385.16,-299 2385.16,-293 2391.16,-287 2397.16,-287 2397.16,-287 2509.93,-287 2509.93,-287 2515.93,-287 2521.93,-293 2521.93,-299 2521.93,-299 2521.93,-311 2521.93,-311 2521.93,-317 2515.93,-323 2509.93,-323"/>
<text text-anchor="middle" x="2453.55" y="-308.25" font-family="DejaVu Sans" font-size="10.00">installPreservingHotSwap</text>
<text text-anchor="middle" x="2453.55" y="-295.5" font-family="DejaVu Sans" font-size="10.00">prepare next world</text>
</g>
<!-- preserving_probe&#45;&gt;preserving_builder -->
<g id="edge42" class="edge">
<title>preserving_probe&#45;&gt;preserving_builder</title>
<path fill="none" stroke="#475569" d="M2325.88,-298.97C2342.89,-299.78 2360.22,-300.6 2376.38,-301.37"/>
<polygon fill="#475569" stroke="#475569" points="2376.1,-303.81 2383.21,-301.7 2376.33,-298.92 2376.1,-303.81"/>
</g>
<!-- live_protocol -->
<g id="node37" class="node">
<title>live_protocol</title>
<path fill="#f8fafc" stroke="#64748b" d="M2852.2,-328.44C2852.2,-328.44 2665.18,-328.44 2665.18,-328.44 2659.18,-328.44 2653.18,-322.44 2653.18,-316.44 2653.18,-316.44 2653.18,-293.56 2653.18,-293.56 2653.18,-287.56 2659.18,-281.56 2665.18,-281.56 2665.18,-281.56 2852.2,-281.56 2852.2,-281.56 2858.2,-281.56 2864.2,-287.56 2864.2,-293.56 2864.2,-293.56 2864.2,-316.44 2864.2,-316.44 2864.2,-322.44 2858.2,-328.44 2852.2,-328.44"/>
<text text-anchor="middle" x="2758.69" y="-314.62" font-family="DejaVu Sans" font-size="10.00">runLiveHotSwapProtocol</text>
<text text-anchor="middle" x="2758.69" y="-301.88" font-family="DejaVu Sans" font-size="10.00">read generation &#45;&gt; acquire &#45;&gt; publish &#45;&gt;</text>
<text text-anchor="middle" x="2758.69" y="-289.12" font-family="DejaVu Sans" font-size="10.00">wait &#45;&gt; collect retired stats &#45;&gt; verify</text>
</g>
<!-- preserving_builder&#45;&gt;live_protocol -->
<g id="edge43" class="edge">
<title>preserving_builder&#45;&gt;live_protocol</title>
<path fill="none" stroke="#475569" d="M2522.2,-305C2558.11,-305 2603.21,-305 2644.3,-305"/>
<polygon fill="#475569" stroke="#475569" points="2644.22,-307.45 2651.22,-305 2644.22,-302.55 2644.22,-307.45"/>
<text text-anchor="middle" x="2598.81" y="-307.7" font-family="DejaVu Sans" font-size="9.00">if audio running</text>
</g>
<!-- scripted_preserving -->
<g id="node38" class="node">
<title>scripted_preserving</title>
<path fill="#f8fafc" stroke="#64748b" d="M2815.45,-382C2815.45,-382 2701.93,-382 2701.93,-382 2695.93,-382 2689.93,-376 2689.93,-370 2689.93,-370 2689.93,-358 2689.93,-358 2689.93,-352 2695.93,-346 2701.93,-346 2701.93,-346 2815.45,-346 2815.45,-346 2821.45,-346 2827.45,-352 2827.45,-358 2827.45,-358 2827.45,-370 2827.45,-370 2827.45,-376 2821.45,-382 2815.45,-382"/>
<text text-anchor="middle" x="2758.69" y="-367.25" font-family="DejaVu Sans" font-size="10.00">scripted preserving path</text>
<text text-anchor="middle" x="2758.69" y="-354.5" font-family="DejaVu Sans" font-size="10.00">when audio is not running</text>
</g>
<!-- preserving_builder&#45;&gt;scripted_preserving -->
<g id="edge44" class="edge">
<title>preserving_builder&#45;&gt;scripted_preserving</title>
<path fill="none" stroke="#475569" d="M2522.2,-318.17C2569.29,-327.33 2632.17,-339.57 2681.11,-349.1"/>
<polygon fill="#475569" stroke="#475569" points="2680.63,-351.5 2687.97,-350.43 2681.57,-346.69 2680.63,-351.5"/>
<text text-anchor="middle" x="2598.81" y="-342.48" font-family="DejaVu Sans" font-size="9.00">if audio stopped</text>
</g>
<!-- live_protocol&#45;&gt;rt_graph -->
<g id="edge45" class="edge">
<title>live_protocol&#45;&gt;rt_graph</title>
<path fill="none" stroke="#475569" d="M2858.37,-328.9C2863.19,-331.35 2867.83,-334.04 2872.2,-337 2903.75,-358.38 2928.59,-395.43 2942.84,-420.33"/>
<polygon fill="#475569" stroke="#475569" points="2940.63,-421.39 2946.19,-426.31 2944.91,-419 2940.63,-421.39"/>
</g>
<!-- scripted_preserving&#45;&gt;rt_graph -->
<g id="edge46" class="edge">
<title>scripted_preserving&#45;&gt;rt_graph</title>
<path fill="none" stroke="#475569" d="M2803.79,-382.4C2833.53,-394.81 2872.88,-411.23 2904.15,-424.28"/>
<polygon fill="#475569" stroke="#475569" points="2903.11,-426.5 2910.52,-426.93 2905,-421.98 2903.11,-426.5"/>
</g>
<!-- fallback_clear&#45;&gt;install_graph -->
<g id="edge48" class="edge">
<title>fallback_clear&#45;&gt;install_graph</title>
<path fill="none" stroke="#475569" d="M2284.34,-369.19C2384.33,-385.42 2579.17,-417.03 2685.02,-434.21"/>
<polygon fill="#475569" stroke="#475569" points="2684.31,-436.58 2691.61,-435.28 2685.1,-431.74 2684.31,-436.58"/>
</g>
<!-- preserving_only_mode -->
<g id="node41" class="node">
<title>preserving_only_mode</title>
<path fill="#f8fafc" stroke="#64748b" d="M1261.83,-832.45C1261.83,-832.45 1134.06,-832.45 1134.06,-832.45 1128.06,-832.45 1122.06,-826.45 1122.06,-820.45 1122.06,-820.45 1122.06,-797.55 1122.06,-797.55 1122.06,-791.55 1128.06,-785.55 1134.06,-785.55 1134.06,-785.55 1261.83,-785.55 1261.83,-785.55 1267.83,-785.55 1273.83,-791.55 1273.83,-797.55 1273.83,-797.55 1273.83,-820.45 1273.83,-820.45 1273.83,-826.45 1267.83,-832.45 1261.83,-832.45"/>
<text text-anchor="middle" x="1197.95" y="-818.62" font-family="DejaVu Sans" font-size="10.00">CmdHotSwapPreservingOnly</text>
<text text-anchor="middle" x="1197.95" y="-805.88" font-family="DejaVu Sans" font-size="10.00">HotSwapPreservingOnly</text>
<text text-anchor="middle" x="1197.95" y="-793.12" font-family="DejaVu Sans" font-size="10.00">reject clear/rebuild fallback</text>
</g>
<!-- preserving_only_mode&#45;&gt;cmd_hot_swap -->
<g id="edge53" class="edge">
<title>preserving_only_mode&#45;&gt;cmd_hot_swap</title>
<path fill="none" stroke="#475569" d="M1246.96,-785.12C1308.34,-754.4 1417.69,-699.04 1509.85,-649 1538.23,-633.59 1569.61,-615.69 1594.74,-601.13"/>
<polygon fill="#475569" stroke="#475569" points="1595.86,-603.32 1600.68,-597.68 1593.4,-599.08 1595.86,-603.32"/>
<text text-anchor="middle" x="1429.09" y="-736.06" font-family="DejaVu Sans" font-size="9.00">variant</text>
</g>
<!-- preserving_manifest_helper&#45;&gt;fanin_host -->
<g id="edge54" class="edge">
<title>preserving_manifest_helper&#45;&gt;fanin_host</title>
<path fill="none" stroke="#475569" d="M988.95,-787.64C995.71,-783.89 1001.99,-779.39 1007.44,-774 1021.59,-759.99 1014.26,-750.05 1020.06,-731 1047.8,-639.94 1026.39,-602.1 1084.56,-526.75 1157.34,-432.48 1244.02,-482.25 1311.33,-384 1359.95,-313.03 1301.81,-266.37 1348.33,-194 1355.42,-182.97 1365.46,-173.42 1376.04,-165.46"/>
<polygon fill="#475569" stroke="#475569" points="1377.18,-167.65 1381.44,-161.59 1374.32,-163.67 1377.18,-167.65"/>
<text text-anchor="middle" x="1197.95" y="-529.45" font-family="DejaVu Sans" font-size="9.00">enqueue + drain</text>
</g>
<!-- preserving_manifest_helper&#45;&gt;preserving_only_mode -->
<g id="edge52" class="edge">
<title>preserving_manifest_helper&#45;&gt;preserving_only_mode</title>
<path fill="none" stroke="#475569" d="M1002.2,-807.07C1038.83,-807.43 1079.16,-807.83 1113.58,-808.17"/>
<polygon fill="#475569" stroke="#475569" points="1113.2,-810.62 1120.22,-808.24 1113.25,-805.72 1113.2,-810.62"/>
</g>
<!-- preserving_host -->
<g id="node43" class="node">
<title>preserving_host</title>
<path fill="#f8fafc" stroke="#64748b" d="M375.29,-832C375.29,-832 240.02,-832 240.02,-832 234.02,-832 228.02,-826 228.02,-820 228.02,-820 228.02,-808 228.02,-808 228.02,-802 234.02,-796 240.02,-796 240.02,-796 375.29,-796 375.29,-796 381.29,-796 387.29,-802 387.29,-808 387.29,-808 387.29,-820 387.29,-820 387.29,-826 381.29,-832 375.29,-832"/>
<text text-anchor="middle" x="307.66" y="-817.25" font-family="DejaVu Sans" font-size="10.00">reloadManifestPreservingHost</text>
<text text-anchor="middle" x="307.66" y="-804.5" font-family="DejaVu Sans" font-size="10.00">ManifestReloadHost</text>
</g>
<!-- host_preserving_ops -->
<g id="node44" class="node">
<title>host_preserving_ops</title>
<path fill="#f8fafc" stroke="#64748b" d="M623.05,-832.45C623.05,-832.45 443.53,-832.45 443.53,-832.45 437.53,-832.45 431.53,-826.45 431.53,-820.45 431.53,-820.45 431.53,-797.55 431.53,-797.55 431.53,-791.55 437.53,-785.55 443.53,-785.55 443.53,-785.55 623.05,-785.55 623.05,-785.55 629.05,-785.55 635.05,-791.55 635.05,-797.55 635.05,-797.55 635.05,-820.45 635.05,-820.45 635.05,-826.45 629.05,-832.45 623.05,-832.45"/>
<text text-anchor="middle" x="533.29" y="-818.62" font-family="DejaVu Sans" font-size="10.00">HostPreservingReloadOps</text>
<text text-anchor="middle" x="533.29" y="-805.88" font-family="DejaVu Sans" font-size="10.00">plan &#45;&gt; quiesce &#45;&gt; drain &#45;&gt;</text>
<text text-anchor="middle" x="533.29" y="-793.12" font-family="DejaVu Sans" font-size="10.00">preserving reload &#45;&gt; resume &#45;&gt; reopen</text>
</g>
<!-- preserving_host&#45;&gt;host_preserving_ops -->
<g id="edge55" class="edge">
<title>preserving_host&#45;&gt;host_preserving_ops</title>
<path fill="none" stroke="#475569" d="M387.5,-812.24C398.94,-811.98 410.89,-811.71 422.81,-811.45"/>
<polygon fill="#475569" stroke="#475569" points="422.59,-813.9 429.53,-811.3 422.48,-809 422.59,-813.9"/>
</g>
<!-- host_preserving_ops&#45;&gt;ingress -->
<g id="edge57" class="edge">
<title>host_preserving_ops&#45;&gt;ingress</title>
<path fill="none" stroke="#475569" d="M635.36,-786.64C641.16,-783.03 646.54,-778.85 651.29,-774 662.98,-762.06 655.68,-753.49 661.29,-737.75 700.09,-628.95 739.59,-612.38 766.29,-500 772.69,-473.05 761.2,-272.3 778.92,-251 787.64,-240.51 799.63,-233.67 812.57,-229.3"/>
<polygon fill="#475569" stroke="#475569" points="813.26,-231.65 819.28,-227.31 811.87,-226.95 813.26,-231.65"/>
<text text-anchor="middle" x="713.79" y="-740.45" font-family="DejaVu Sans" font-size="9.00">reuse close/open policy</text>
</g>
<!-- host_preserving_ops&#45;&gt;preserving_manifest_helper -->
<g id="edge56" class="edge">
<title>host_preserving_ops&#45;&gt;preserving_manifest_helper</title>
<path fill="none" stroke="#475569" d="M635.41,-808.15C679,-807.79 730.24,-807.36 775.43,-806.98"/>
<polygon fill="#475569" stroke="#475569" points="775.3,-809.43 782.28,-806.92 775.26,-804.53 775.3,-809.43"/>
</g>
<!-- binding_rebuild -->
<g id="node46" class="node">
<title>binding_rebuild</title>
<path fill="#f1f5f9" stroke="#64748b" stroke-dasharray="5,2" d="M987.44,-740C987.44,-740 798.92,-740 798.92,-740 792.92,-740 786.92,-734 786.92,-728 786.92,-728 786.92,-716 786.92,-716 786.92,-710 792.92,-704 798.92,-704 798.92,-704 987.44,-704 987.44,-704 993.44,-704 999.44,-710 999.44,-716 999.44,-716 999.44,-728 999.44,-728 999.44,-734 993.44,-740 987.44,-740"/>
<text text-anchor="middle" x="893.18" y="-725.25" font-family="DejaVu Sans" font-size="10.00">producer/listener binding rebuild contract</text>
<text text-anchor="middle" x="893.18" y="-712.5" font-family="DejaVu Sans" font-size="10.00">still missing</text>
</g>
<!-- host_preserving_ops&#45;&gt;binding_rebuild -->
<g id="edge58" class="edge">
<title>host_preserving_ops&#45;&gt;binding_rebuild</title>
<path fill="none" stroke="#475569" stroke-dasharray="5,2" d="M632.56,-785.11C687.67,-771.71 755.69,-755.18 808.28,-742.39"/>
<polygon fill="#475569" stroke="#475569" points="808.56,-744.85 814.79,-740.81 807.4,-740.09 808.56,-744.85"/>
</g>
<!-- strategy_selector -->
<g id="node45" class="node">
<title>strategy_selector</title>
<path fill="#f8fafc" stroke="#64748b" d="M179.02,-845.82C179.02,-845.82 28,-845.82 28,-845.82 22,-845.82 16,-839.82 16,-833.82 16,-833.82 16,-798.18 16,-798.18 16,-792.18 22,-786.18 28,-786.18 28,-786.18 179.02,-786.18 179.02,-786.18 185.02,-786.18 191.02,-792.18 191.02,-798.18 191.02,-798.18 191.02,-833.82 191.02,-833.82 191.02,-839.82 185.02,-845.82 179.02,-845.82"/>
<text text-anchor="middle" x="103.51" y="-832" font-family="DejaVu Sans" font-size="10.00">reloadManifestHostWithStrategy</text>
<text text-anchor="middle" x="103.51" y="-819.25" font-family="DejaVu Sans" font-size="10.00">RequirePreserving /</text>
<text text-anchor="middle" x="103.51" y="-806.5" font-family="DejaVu Sans" font-size="10.00">TryPreservingThenStoppedAudio /</text>
<text text-anchor="middle" x="103.51" y="-793.75" font-family="DejaVu Sans" font-size="10.00">StoppedAudioOnly</text>
</g>
<!-- strategy_selector&#45;&gt;reload_host -->
<g id="edge60" class="edge">
<title>strategy_selector&#45;&gt;reload_host</title>
<path fill="none" stroke="#475569" d="M103.51,-785.77C103.51,-697.34 103.51,-440.13 103.51,-355.99"/>
<polygon fill="#475569" stroke="#475569" points="105.96,-356.01 103.51,-349.01 101.06,-356.01 105.96,-356.01"/>
<text text-anchor="middle" x="94.89" y="-563.66" font-family="DejaVu Sans" font-size="9.00">explicit stopped&#45;audio fallback</text>
</g>
<!-- strategy_selector&#45;&gt;preserving_host -->
<g id="edge59" class="edge">
<title>strategy_selector&#45;&gt;preserving_host</title>
<path fill="none" stroke="#475569" d="M191.41,-815.14C200.67,-815.05 210.09,-814.96 219.35,-814.86"/>
<polygon fill="#475569" stroke="#475569" points="219.32,-817.31 226.29,-814.8 219.27,-812.41 219.32,-817.31"/>
</g>
</g>
</svg>
