<?xml version="1.0" encoding="UTF-8" standalone="no"?>
<!DOCTYPE svg PUBLIC "-//W3C//DTD SVG 1.1//EN"
 "http://www.w3.org/Graphics/SVG/1.1/DTD/svg11.dtd">
<!-- Generated by graphviz version 12.1.0 (20240811.2233)
 -->
<!-- Title: hot_swap_reload_current_interaction Pages: 1 -->
<svg width="3220pt" height="984pt"
 viewBox="0.00 0.00 3219.97 983.50" xmlns="http://www.w3.org/2000/svg" xmlns:xlink="http://www.w3.org/1999/xlink">
<g id="graph0" class="graph" transform="scale(1 1) rotate(0) translate(4 979.5)">
<title>hot_swap_reload_current_interaction</title>
<text text-anchor="middle" x="1605.99" y="-961.05" font-family="DejaVu Sans" font-size="11.00">MetaSonic manifest reload and hot&#45;swap interaction graph &#45; current state</text>
<g id="clust1" class="cluster">
<title>cluster_inputs</title>
<polygon fill="none" stroke="#94a3b8" points="620.16,-754 620.16,-946 789.43,-946 789.43,-754 620.16,-754"/>
<text text-anchor="middle" x="704.79" y="-931.55" font-family="DejaVu Sans" font-size="11.00">Inputs and app catalog</text>
</g>
<g id="clust2" class="cluster">
<title>cluster_planner</title>
<polygon fill="none" stroke="#60a5fa" points="968.42,-564 968.42,-692 1910.75,-692 1910.75,-564 968.42,-564"/>
<text text-anchor="middle" x="1439.58" y="-677.55" font-family="DejaVu Sans" font-size="11.00">Pure manifest reload planning</text>
</g>
<g id="clust3" class="cluster">
<title>cluster_cli</title>
<polygon fill="none" stroke="#c084fc" points="587.79,-564 587.79,-746 822.79,-746 822.79,-564 587.79,-564"/>
<text text-anchor="middle" x="705.29" y="-731.55" font-family="DejaVu Sans" font-size="11.00">Current diagnostic / smoke entry points</text>
</g>
<g id="clust4" class="cluster">
<title>cluster_construction</title>
<polygon fill="none" stroke="#22c55e" points="1952.37,-622 1952.37,-696 3203.97,-696 3203.97,-622 1952.37,-622"/>
<text text-anchor="middle" x="2578.17" y="-681.55" font-family="DejaVu Sans" font-size="11.00">Construction&#45;time session setup</text>
</g>
<g id="clust5" class="cluster">
<title>cluster_fanin</title>
<polygon fill="none" stroke="#f59e0b" points="1306.56,-210 1306.56,-392 2735.18,-392 2735.18,-210 1306.56,-210"/>
<text text-anchor="middle" x="2020.87" y="-377.55" font-family="DejaVu Sans" font-size="11.00">Current owner, queue, service, and audio state</text>
</g>
<g id="clust6" class="cluster">
<title>cluster_stopped</title>
<polygon fill="none" stroke="#ef4444" points="8,-20 8,-202 1671.73,-202 1671.73,-20 8,-20"/>
<text text-anchor="middle" x="839.86" y="-187.55" font-family="DejaVu Sans" font-size="11.00">Landed stopped&#45;audio manifest reload</text>
</g>
<g id="clust7" class="cluster">
<title>cluster_hot_swap</title>
<polygon fill="none" stroke="#14b8a6" points="1963.62,-400 1963.62,-614 3054.95,-614 3054.95,-400 1963.62,-400"/>
<text text-anchor="middle" x="2509.29" y="-599.55" font-family="DejaVu Sans" font-size="11.00">Existing command&#45;level hot&#45;swap runtime path</text>
</g>
<g id="clust8" class="cluster">
<title>cluster_missing</title>
<polygon fill="none" stroke="#64748b" stroke-dasharray="5,2" points="356.27,-428 356.27,-556 1486.71,-556 1486.71,-428 356.27,-428"/>
<text text-anchor="middle" x="921.49" y="-541.55" font-family="DejaVu Sans" font-size="11.00">Not landed yet</text>
</g>
<!-- authoring_doc -->
<g id="node1" class="node">
<title>authoring_doc</title>
<path fill="#f8fafc" stroke="#64748b" d="M752.93,-798C752.93,-798 656.66,-798 656.66,-798 650.66,-798 644.66,-792 644.66,-786 644.66,-786 644.66,-774 644.66,-774 644.66,-768 650.66,-762 656.66,-762 656.66,-762 752.93,-762 752.93,-762 758.93,-762 764.93,-768 764.93,-774 764.93,-774 764.93,-786 764.93,-786 764.93,-792 758.93,-798 752.93,-798"/>
<text text-anchor="middle" x="704.79" y="-783.25" font-family="DejaVu Sans" font-size="10.00">AuthoringManifestDoc</text>
<text text-anchor="middle" x="704.79" y="-770.5" font-family="DejaVu Sans" font-size="10.00">(JSON or in&#45;memory)</text>
</g>
<!-- plan_manifest -->
<g id="node4" class="node">
<title>plan_manifest</title>
<path fill="#f8fafc" stroke="#64748b" d="M1146.94,-662C1146.94,-662 988.42,-662 988.42,-662 982.42,-662 976.42,-656 976.42,-650 976.42,-650 976.42,-638 976.42,-638 976.42,-632 982.42,-626 988.42,-626 988.42,-626 1146.94,-626 1146.94,-626 1152.94,-626 1158.94,-632 1158.94,-638 1158.94,-638 1158.94,-650 1158.94,-650 1158.94,-656 1152.94,-662 1146.94,-662"/>
<text text-anchor="middle" x="1067.68" y="-647.25" font-family="DejaVu Sans" font-size="10.00">planManifestReload</text>
<text text-anchor="middle" x="1067.68" y="-634.5" font-family="DejaVu Sans" font-size="10.00">MetaSonic.Session.ManifestReload</text>
</g>
<!-- authoring_doc&#45;&gt;plan_manifest -->
<g id="edge1" class="edge">
<title>authoring_doc&#45;&gt;plan_manifest</title>
<path fill="none" stroke="#475569" d="M765.24,-777.41C786.03,-773.54 807.88,-765.63 822.79,-750 842.52,-729.31 815.38,-707.02 835.79,-687 845.64,-677.34 909.65,-665.87 967.77,-657.21"/>
<polygon fill="#475569" stroke="#475569" points="967.86,-659.67 974.43,-656.22 967.15,-654.82 967.86,-659.67"/>
</g>
<!-- demo_catalog -->
<g id="node2" class="node">
<title>demo_catalog</title>
<path fill="#f8fafc" stroke="#64748b" d="M769.43,-916C769.43,-916 640.16,-916 640.16,-916 634.16,-916 628.16,-910 628.16,-904 628.16,-904 628.16,-892 628.16,-892 628.16,-886 634.16,-880 640.16,-880 640.16,-880 769.43,-880 769.43,-880 775.43,-880 781.43,-886 781.43,-892 781.43,-892 781.43,-904 781.43,-904 781.43,-910 775.43,-916 769.43,-916"/>
<text text-anchor="middle" x="704.79" y="-901.25" font-family="DejaVu Sans" font-size="10.00">demoManifestReloadCatalog</text>
<text text-anchor="middle" x="704.79" y="-888.5" font-family="DejaVu Sans" font-size="10.00">App.Demos</text>
</g>
<!-- demo_catalog&#45;&gt;plan_manifest -->
<g id="edge2" class="edge">
<title>demo_catalog&#45;&gt;plan_manifest</title>
<path fill="none" stroke="#475569" d="M781.83,-885.09C795.78,-881.43 809.97,-876.81 822.79,-871 925.23,-824.57 1012.75,-717.72 1048.92,-669.01"/>
<polygon fill="#475569" stroke="#475569" points="1050.81,-670.58 1052.98,-663.48 1046.86,-667.67 1050.81,-670.58"/>
</g>
<!-- reload_request -->
<g id="node3" class="node">
<title>reload_request</title>
<path fill="#f8fafc" stroke="#64748b" d="M756.68,-862.45C756.68,-862.45 652.91,-862.45 652.91,-862.45 646.91,-862.45 640.91,-856.45 640.91,-850.45 640.91,-850.45 640.91,-827.55 640.91,-827.55 640.91,-821.55 646.91,-815.55 652.91,-815.55 652.91,-815.55 756.68,-815.55 756.68,-815.55 762.68,-815.55 768.68,-821.55 768.68,-827.55 768.68,-827.55 768.68,-850.45 768.68,-850.45 768.68,-856.45 762.68,-862.45 756.68,-862.45"/>
<text text-anchor="middle" x="704.79" y="-848.62" font-family="DejaVu Sans" font-size="10.00">ManifestReloadRequest</text>
<text text-anchor="middle" x="704.79" y="-835.88" font-family="DejaVu Sans" font-size="10.00">(demo key, swap label,</text>
<text text-anchor="middle" x="704.79" y="-823.12" font-family="DejaVu Sans" font-size="10.00">resource policy)</text>
</g>
<!-- reload_request&#45;&gt;plan_manifest -->
<g id="edge3" class="edge">
<title>reload_request&#45;&gt;plan_manifest</title>
<path fill="none" stroke="#475569" d="M769.04,-825.68C786.84,-820.88 805.93,-814.69 822.79,-807 906.96,-768.59 994.49,-702.61 1038.22,-667.53"/>
<polygon fill="#475569" stroke="#475569" points="1039.52,-669.63 1043.43,-663.33 1036.44,-665.82 1039.52,-669.63"/>
</g>
<!-- reload_plan -->
<g id="node5" class="node">
<title>reload_plan</title>
<path fill="#f8fafc" stroke="#64748b" d="M1439.33,-662.2C1439.33,-662.2 1322.06,-662.2 1322.06,-662.2 1316.06,-662.2 1310.06,-656.2 1310.06,-650.2 1310.06,-650.2 1310.06,-601.8 1310.06,-601.8 1310.06,-595.8 1316.06,-589.8 1322.06,-589.8 1322.06,-589.8 1439.33,-589.8 1439.33,-589.8 1445.33,-589.8 1451.33,-595.8 1451.33,-601.8 1451.33,-601.8 1451.33,-650.2 1451.33,-650.2 1451.33,-656.2 1445.33,-662.2 1439.33,-662.2"/>
<text text-anchor="middle" x="1380.7" y="-648.38" font-family="DejaVu Sans" font-size="10.00">ManifestReloadPlan</text>
<text text-anchor="middle" x="1380.7" y="-635.62" font-family="DejaVu Sans" font-size="10.00">TemplateGraph</text>
<text text-anchor="middle" x="1380.7" y="-622.88" font-family="DejaVu Sans" font-size="10.00">RTGraphAdapterOptions</text>
<text text-anchor="middle" x="1380.7" y="-610.12" font-family="DejaVu Sans" font-size="10.00">ControlSurface</text>
<text text-anchor="middle" x="1380.7" y="-597.38" font-family="DejaVu Sans" font-size="10.00">ArbitrationPolicy=FifoOnly</text>
</g>
<!-- plan_manifest&#45;&gt;reload_plan -->
<g id="edge4" class="edge">
<title>plan_manifest&#45;&gt;reload_plan</title>
<path fill="none" stroke="#475569" d="M1159.05,-638.77C1204.13,-636.16 1258.11,-633.04 1301.39,-630.53"/>
<polygon fill="#475569" stroke="#475569" points="1301.27,-632.99 1308.11,-630.14 1300.98,-628.1 1301.27,-632.99"/>
</g>
<!-- command_projection -->
<g id="node6" class="node">
<title>command_projection</title>
<path fill="#f8fafc" stroke="#64748b" d="M1669.35,-608C1669.35,-608 1554.33,-608 1554.33,-608 1548.33,-608 1542.33,-602 1542.33,-596 1542.33,-596 1542.33,-584 1542.33,-584 1542.33,-578 1548.33,-572 1554.33,-572 1554.33,-572 1669.35,-572 1669.35,-572 1675.35,-572 1681.35,-578 1681.35,-584 1681.35,-584 1681.35,-596 1681.35,-596 1681.35,-602 1675.35,-608 1669.35,-608"/>
<text text-anchor="middle" x="1611.84" y="-586.88" font-family="DejaVu Sans" font-size="10.00">manifestReloadCommand</text>
</g>
<!-- reload_plan&#45;&gt;command_projection -->
<g id="edge5" class="edge">
<title>reload_plan&#45;&gt;command_projection</title>
<path fill="none" stroke="#475569" d="M1451.69,-615C1477.69,-610.92 1507.32,-606.26 1533.91,-602.09"/>
<polygon fill="#475569" stroke="#475569" points="1534.03,-604.55 1540.56,-601.04 1533.27,-599.71 1534.03,-604.55"/>
</g>
<!-- owner_options_projection -->
<g id="node7" class="node">
<title>owner_options_projection</title>
<path fill="#f8fafc" stroke="#64748b" d="M1680.6,-662C1680.6,-662 1543.08,-662 1543.08,-662 1537.08,-662 1531.08,-656 1531.08,-650 1531.08,-650 1531.08,-638 1531.08,-638 1531.08,-632 1537.08,-626 1543.08,-626 1543.08,-626 1680.6,-626 1680.6,-626 1686.6,-626 1692.6,-632 1692.6,-638 1692.6,-638 1692.6,-650 1692.6,-650 1692.6,-656 1686.6,-662 1680.6,-662"/>
<text text-anchor="middle" x="1611.84" y="-640.88" font-family="DejaVu Sans" font-size="10.00">manifestSessionOwnerOptions</text>
</g>
<!-- reload_plan&#45;&gt;owner_options_projection -->
<g id="edge7" class="edge">
<title>reload_plan&#45;&gt;owner_options_projection</title>
<path fill="none" stroke="#475569" d="M1451.69,-631.5C1474.06,-633.26 1499.12,-635.22 1522.61,-637.07"/>
<polygon fill="#475569" stroke="#475569" points="1522.17,-639.49 1529.34,-637.6 1522.55,-634.61 1522.17,-639.49"/>
</g>
<!-- construct_from_plan -->
<g id="node12" class="node">
<title>construct_from_plan</title>
<path fill="#f8fafc" stroke="#64748b" d="M2130.89,-666C2130.89,-666 1972.37,-666 1972.37,-666 1966.37,-666 1960.37,-660 1960.37,-654 1960.37,-654 1960.37,-642 1960.37,-642 1960.37,-636 1966.37,-630 1972.37,-630 1972.37,-630 2130.89,-630 2130.89,-630 2136.89,-630 2142.89,-636 2142.89,-642 2142.89,-642 2142.89,-654 2142.89,-654 2142.89,-660 2136.89,-666 2130.89,-666"/>
<text text-anchor="middle" x="2051.63" y="-651.25" font-family="DejaVu Sans" font-size="10.00">constructManifestSessionFromPlan</text>
<text text-anchor="middle" x="2051.63" y="-638.5" font-family="DejaVu Sans" font-size="10.00">ManifestReload.Construct</text>
</g>
<!-- reload_plan&#45;&gt;construct_from_plan -->
<g id="edge11" class="edge">
<title>reload_plan&#45;&gt;construct_from_plan</title>
<path fill="none" stroke="#475569" d="M1451.78,-651.72C1476.49,-659.55 1504.69,-667.11 1531.08,-671 1676.32,-692.4 1846.65,-677.34 1951.61,-663.5"/>
<polygon fill="#475569" stroke="#475569" points="1951.88,-665.93 1958.49,-662.58 1951.23,-661.08 1951.88,-665.93"/>
</g>
<!-- preserving_manifest_helper -->
<g id="node42" class="node">
<title>preserving_manifest_helper</title>
<path fill="#f1f5f9" stroke="#64748b" stroke-dasharray="5,2" d="M1164.56,-526C1164.56,-526 970.79,-526 970.79,-526 964.79,-526 958.79,-520 958.79,-514 958.79,-514 958.79,-502 958.79,-502 958.79,-496 964.79,-490 970.79,-490 970.79,-490 1164.56,-490 1164.56,-490 1170.56,-490 1176.56,-496 1176.56,-502 1176.56,-502 1176.56,-514 1176.56,-514 1176.56,-520 1170.56,-526 1164.56,-526"/>
<text text-anchor="middle" x="1067.68" y="-511.25" font-family="DejaVu Sans" font-size="10.00">reloadManifestSessionPreservingHotSwap</text>
<text text-anchor="middle" x="1067.68" y="-498.5" font-family="DejaVu Sans" font-size="10.00">missing session helper</text>
</g>
<!-- reload_plan&#45;&gt;preserving_manifest_helper -->
<g id="edge51" class="edge">
<title>reload_plan&#45;&gt;preserving_manifest_helper</title>
<path fill="none" stroke="#475569" stroke-dasharray="5,2" d="M1309.8,-599.48C1254.03,-578.32 1176.93,-549.07 1125.05,-529.39"/>
<polygon fill="#475569" stroke="#475569" points="1126.1,-527.17 1118.69,-526.97 1124.36,-531.75 1126.1,-527.17"/>
<text text-anchor="middle" x="1221.94" y="-576.76" font-family="DejaVu Sans" font-size="9.00">future input</text>
</g>
<!-- cmd_hot_swap -->
<g id="node8" class="node">
<title>cmd_hot_swap</title>
<path fill="#f8fafc" stroke="#64748b" d="M1890.75,-608C1890.75,-608 1762.23,-608 1762.23,-608 1756.23,-608 1750.23,-602 1750.23,-596 1750.23,-596 1750.23,-584 1750.23,-584 1750.23,-578 1756.23,-572 1762.23,-572 1762.23,-572 1890.75,-572 1890.75,-572 1896.75,-572 1902.75,-578 1902.75,-584 1902.75,-584 1902.75,-596 1902.75,-596 1902.75,-602 1896.75,-608 1890.75,-608"/>
<text text-anchor="middle" x="1826.49" y="-593.25" font-family="DejaVu Sans" font-size="10.00">CmdHotSwap</text>
<text text-anchor="middle" x="1826.49" y="-580.5" font-family="DejaVu Sans" font-size="10.00">SwapLabel + TemplateGraph</text>
</g>
<!-- command_projection&#45;&gt;cmd_hot_swap -->
<g id="edge6" class="edge">
<title>command_projection&#45;&gt;cmd_hot_swap</title>
<path fill="none" stroke="#475569" d="M1681.59,-590C1700.7,-590 1721.67,-590 1741.54,-590"/>
<polygon fill="#475569" stroke="#475569" points="1741.47,-592.45 1748.47,-590 1741.47,-587.55 1741.47,-592.45"/>
</g>
<!-- admit_hot_swap -->
<g id="node33" class="node">
<title>admit_hot_swap</title>
<path fill="#f8fafc" stroke="#64748b" d="M2119.64,-452C2119.64,-452 1983.62,-452 1983.62,-452 1977.62,-452 1971.62,-446 1971.62,-440 1971.62,-440 1971.62,-428 1971.62,-428 1971.62,-422 1977.62,-416 1983.62,-416 1983.62,-416 2119.64,-416 2119.64,-416 2125.64,-416 2131.64,-422 2131.64,-428 2131.64,-428 2131.64,-440 2131.64,-440 2131.64,-446 2125.64,-452 2119.64,-452"/>
<text text-anchor="middle" x="2051.63" y="-437.25" font-family="DejaVu Sans" font-size="10.00">admitSessionCommand</text>
<text text-anchor="middle" x="2051.63" y="-424.5" font-family="DejaVu Sans" font-size="10.00">CmdHotSwap &#45;&gt; PlanHotSwap</text>
</g>
<!-- cmd_hot_swap&#45;&gt;admit_hot_swap -->
<g id="edge38" class="edge">
<title>cmd_hot_swap&#45;&gt;admit_hot_swap</title>
<path fill="none" stroke="#475569" d="M1841.14,-571.52C1862.13,-544.37 1904.91,-493.82 1952.37,-465 1958.08,-461.53 1964.22,-458.41 1970.54,-455.62"/>
<polygon fill="#475569" stroke="#475569" points="1971.12,-458.03 1976.64,-453.07 1969.23,-453.51 1971.12,-458.03"/>
</g>
<!-- cli_plan -->
<g id="node9" class="node">
<title>cli_plan</title>
<path fill="#f8fafc" stroke="#64748b" d="M763.05,-662C763.05,-662 646.53,-662 646.53,-662 640.53,-662 634.53,-656 634.53,-650 634.53,-650 634.53,-638 634.53,-638 634.53,-632 640.53,-626 646.53,-626 646.53,-626 763.05,-626 763.05,-626 769.05,-626 775.05,-632 775.05,-638 775.05,-638 775.05,-650 775.05,-650 775.05,-656 769.05,-662 763.05,-662"/>
<text text-anchor="middle" x="704.79" y="-647.25" font-family="DejaVu Sans" font-size="10.00">&#45;&#45;manifest&#45;reload&#45;plan</text>
<text text-anchor="middle" x="704.79" y="-634.5" font-family="DejaVu Sans" font-size="10.00">&#45;&#45;manifest&#45;reload&#45;plan&#45;file</text>
</g>
<!-- cli_plan&#45;&gt;plan_manifest -->
<g id="edge8" class="edge">
<title>cli_plan&#45;&gt;plan_manifest</title>
<path fill="none" stroke="#475569" d="M775.37,-644C829.95,-644 906.62,-644 967.61,-644"/>
<polygon fill="#475569" stroke="#475569" points="967.59,-646.45 974.59,-644 967.59,-641.55 967.59,-646.45"/>
</g>
<!-- cli_construct -->
<g id="node10" class="node">
<title>cli_construct</title>
<path fill="#f8fafc" stroke="#64748b" d="M762.3,-716C762.3,-716 647.28,-716 647.28,-716 641.28,-716 635.28,-710 635.28,-704 635.28,-704 635.28,-692 635.28,-692 635.28,-686 641.28,-680 647.28,-680 647.28,-680 762.3,-680 762.3,-680 768.3,-680 774.3,-686 774.3,-692 774.3,-692 774.3,-704 774.3,-704 774.3,-710 768.3,-716 762.3,-716"/>
<text text-anchor="middle" x="704.79" y="-694.88" font-family="DejaVu Sans" font-size="10.00">&#45;&#45;manifest&#45;session&#45;smoke</text>
</g>
<!-- cli_construct&#45;&gt;construct_from_plan -->
<g id="edge9" class="edge">
<title>cli_construct&#45;&gt;construct_from_plan</title>
<path fill="none" stroke="#475569" d="M774.5,-707.12C847,-715.95 964.67,-728 1066.68,-728 1066.68,-728 1066.68,-728 1827.49,-728 1896.15,-728 1970.1,-694.02 2013.27,-670.35"/>
<polygon fill="#475569" stroke="#475569" points="2014.2,-672.64 2019.13,-667.09 2011.82,-668.35 2014.2,-672.64"/>
</g>
<!-- cli_stopped_smoke -->
<g id="node11" class="node">
<title>cli_stopped_smoke</title>
<path fill="#f8fafc" stroke="#64748b" d="M796.05,-608C796.05,-608 613.53,-608 613.53,-608 607.53,-608 601.53,-602 601.53,-596 601.53,-596 601.53,-584 601.53,-584 601.53,-578 607.53,-572 613.53,-572 613.53,-572 796.05,-572 796.05,-572 802.05,-572 808.05,-578 808.05,-584 808.05,-584 808.05,-596 808.05,-596 808.05,-602 802.05,-608 796.05,-608"/>
<text text-anchor="middle" x="704.79" y="-586.88" font-family="DejaVu Sans" font-size="10.00">&#45;&#45;manifest&#45;stopped&#45;audio&#45;reload&#45;smoke</text>
</g>
<!-- reload_stopped -->
<g id="node30" class="node">
<title>reload_stopped</title>
<path fill="#f8fafc" stroke="#64748b" d="M1150.69,-172C1150.69,-172 984.67,-172 984.67,-172 978.67,-172 972.67,-166 972.67,-160 972.67,-160 972.67,-148 972.67,-148 972.67,-142 978.67,-136 984.67,-136 984.67,-136 1150.69,-136 1150.69,-136 1156.69,-136 1162.69,-142 1162.69,-148 1162.69,-148 1162.69,-160 1162.69,-160 1162.69,-166 1156.69,-172 1150.69,-172"/>
<text text-anchor="middle" x="1067.68" y="-157.25" font-family="DejaVu Sans" font-size="10.00">reloadManifestSessionStoppedAudio</text>
<text text-anchor="middle" x="1067.68" y="-144.5" font-family="DejaVu Sans" font-size="10.00">ManifestReload.Runtime</text>
</g>
<!-- cli_stopped_smoke&#45;&gt;reload_stopped -->
<g id="edge10" class="edge">
<title>cli_stopped_smoke&#45;&gt;reload_stopped</title>
<path fill="none" stroke="#475569" d="M803.09,-571.61C810.07,-568.35 816.74,-564.51 822.79,-560 960.23,-457.57 1035.56,-252.74 1058.79,-180.2"/>
<polygon fill="#475569" stroke="#475569" points="1061.02,-181.27 1060.79,-173.86 1056.35,-179.8 1061.02,-181.27"/>
</g>
<!-- construct_from_plan&#45;&gt;owner_options_projection -->
<g id="edge12" class="edge">
<title>construct_from_plan&#45;&gt;owner_options_projection</title>
<path fill="none" stroke="#475569" d="M1960.16,-647.17C1884.19,-646.48 1776.29,-645.49 1700.98,-644.81"/>
<polygon fill="#475569" stroke="#475569" points="1701.42,-642.36 1694.4,-644.75 1701.37,-647.26 1701.42,-642.36"/>
</g>
<!-- with_session_owner -->
<g id="node13" class="node">
<title>with_session_owner</title>
<path fill="#f8fafc" stroke="#64748b" d="M2449.54,-666C2449.54,-666 2357.02,-666 2357.02,-666 2351.02,-666 2345.02,-660 2345.02,-654 2345.02,-654 2345.02,-642 2345.02,-642 2345.02,-636 2351.02,-630 2357.02,-630 2357.02,-630 2449.54,-630 2449.54,-630 2455.54,-630 2461.54,-636 2461.54,-642 2461.54,-642 2461.54,-654 2461.54,-654 2461.54,-660 2455.54,-666 2449.54,-666"/>
<text text-anchor="middle" x="2403.28" y="-651.25" font-family="DejaVu Sans" font-size="10.00">withSessionOwner /</text>
<text text-anchor="middle" x="2403.28" y="-638.5" font-family="DejaVu Sans" font-size="10.00">acquireSessionOwner</text>
</g>
<!-- construct_from_plan&#45;&gt;with_session_owner -->
<g id="edge13" class="edge">
<title>construct_from_plan&#45;&gt;with_session_owner</title>
<path fill="none" stroke="#475569" d="M2143.13,-648C2203.66,-648 2281.92,-648 2336.53,-648"/>
<polygon fill="#475569" stroke="#475569" points="2336.24,-650.45 2343.24,-648 2336.24,-645.55 2336.24,-650.45"/>
</g>
<!-- new_adapter -->
<g id="node14" class="node">
<title>new_adapter</title>
<path fill="#f8fafc" stroke="#64748b" d="M2679.93,-666C2679.93,-666 2592.66,-666 2592.66,-666 2586.66,-666 2580.66,-660 2580.66,-654 2580.66,-654 2580.66,-642 2580.66,-642 2580.66,-636 2586.66,-630 2592.66,-630 2592.66,-630 2679.93,-630 2679.93,-630 2685.93,-630 2691.93,-636 2691.93,-642 2691.93,-642 2691.93,-654 2691.93,-654 2691.93,-660 2685.93,-666 2679.93,-666"/>
<text text-anchor="middle" x="2636.3" y="-644.88" font-family="DejaVu Sans" font-size="10.00">newRTGraphAdapter</text>
</g>
<!-- with_session_owner&#45;&gt;new_adapter -->
<g id="edge14" class="edge">
<title>with_session_owner&#45;&gt;new_adapter</title>
<path fill="none" stroke="#475569" d="M2461.98,-648C2495.51,-648 2537.79,-648 2572.2,-648"/>
<polygon fill="#475569" stroke="#475569" points="2571.8,-650.45 2578.8,-648 2571.8,-645.55 2571.8,-650.45"/>
</g>
<!-- install_graph -->
<g id="node15" class="node">
<title>install_graph</title>
<path fill="#f8fafc" stroke="#64748b" d="M2994.83,-666C2994.83,-666 2888.06,-666 2888.06,-666 2882.06,-666 2876.06,-660 2876.06,-654 2876.06,-654 2876.06,-642 2876.06,-642 2876.06,-636 2882.06,-630 2888.06,-630 2888.06,-630 2994.83,-630 2994.83,-630 3000.83,-630 3006.83,-636 3006.83,-642 3006.83,-642 3006.83,-654 3006.83,-654 3006.83,-660 3000.83,-666 2994.83,-666"/>
<text text-anchor="middle" x="2941.44" y="-651.25" font-family="DejaVu Sans" font-size="10.00">installSessionGraph</text>
<text text-anchor="middle" x="2941.44" y="-638.5" font-family="DejaVu Sans" font-size="10.00">loader clear/rebuild path</text>
</g>
<!-- new_adapter&#45;&gt;install_graph -->
<g id="edge15" class="edge">
<title>new_adapter&#45;&gt;install_graph</title>
<path fill="none" stroke="#475569" d="M2692.19,-648C2741.18,-648 2813.3,-648 2867.2,-648"/>
<polygon fill="#475569" stroke="#475569" points="2867.17,-650.45 2874.17,-648 2867.17,-645.55 2867.17,-650.45"/>
</g>
<!-- rt_graph -->
<g id="node16" class="node">
<title>rt_graph</title>
<path fill="#ecfdf5" stroke="#64748b" d="M3183.97,-666C3183.97,-666 3095.95,-666 3095.95,-666 3089.95,-666 3083.95,-660 3083.95,-654 3083.95,-654 3083.95,-642 3083.95,-642 3083.95,-636 3089.95,-630 3095.95,-630 3095.95,-630 3183.97,-630 3183.97,-630 3189.97,-630 3195.97,-636 3195.97,-642 3195.97,-642 3195.97,-654 3195.97,-654 3195.97,-660 3189.97,-666 3183.97,-666"/>
<text text-anchor="middle" x="3139.96" y="-651.25" font-family="DejaVu Sans" font-size="10.00">RTGraph</text>
<text text-anchor="middle" x="3139.96" y="-638.5" font-family="DejaVu Sans" font-size="10.00">C++ runtime handle</text>
</g>
<!-- install_graph&#45;&gt;rt_graph -->
<g id="edge16" class="edge">
<title>install_graph&#45;&gt;rt_graph</title>
<path fill="none" stroke="#475569" d="M3007.06,-648C3028.98,-648 3053.45,-648 3075.29,-648"/>
<polygon fill="#475569" stroke="#475569" points="3075.02,-650.45 3082.02,-648 3075.02,-645.55 3075.02,-650.45"/>
</g>
<!-- fanin_service -->
<g id="node17" class="node">
<title>fanin_service</title>
<path fill="#f8fafc" stroke="#64748b" d="M1434.83,-281C1434.83,-281 1326.56,-281 1326.56,-281 1320.56,-281 1314.56,-275 1314.56,-269 1314.56,-269 1314.56,-257 1314.56,-257 1314.56,-251 1320.56,-245 1326.56,-245 1326.56,-245 1434.83,-245 1434.83,-245 1440.83,-245 1446.83,-251 1446.83,-257 1446.83,-257 1446.83,-269 1446.83,-269 1446.83,-275 1440.83,-281 1434.83,-281"/>
<text text-anchor="middle" x="1380.7" y="-266.25" font-family="DejaVu Sans" font-size="10.00">SessionFanInService</text>
<text text-anchor="middle" x="1380.7" y="-253.5" font-family="DejaVu Sans" font-size="10.00">background drain worker</text>
</g>
<!-- fanin_host -->
<g id="node18" class="node">
<title>fanin_host</title>
<path fill="#f8fafc" stroke="#64748b" d="M1678.35,-293.44C1678.35,-293.44 1545.33,-293.44 1545.33,-293.44 1539.33,-293.44 1533.33,-287.44 1533.33,-281.44 1533.33,-281.44 1533.33,-258.56 1533.33,-258.56 1533.33,-252.56 1539.33,-246.56 1545.33,-246.56 1545.33,-246.56 1678.35,-246.56 1678.35,-246.56 1684.35,-246.56 1690.35,-252.56 1690.35,-258.56 1690.35,-258.56 1690.35,-281.44 1690.35,-281.44 1690.35,-287.44 1684.35,-293.44 1678.35,-293.44"/>
<text text-anchor="middle" x="1611.84" y="-279.62" font-family="DejaVu Sans" font-size="10.00">SessionFanInHost</text>
<text text-anchor="middle" x="1611.84" y="-266.88" font-family="DejaVu Sans" font-size="10.00">MVar: owner + queue +</text>
<text text-anchor="middle" x="1611.84" y="-254.12" font-family="DejaVu Sans" font-size="10.00">reload status + audio&#45;running</text>
</g>
<!-- fanin_service&#45;&gt;fanin_host -->
<g id="edge17" class="edge">
<title>fanin_service&#45;&gt;fanin_host</title>
<path fill="none" stroke="#475569" d="M1447.05,-265C1471.28,-265.74 1499.14,-266.59 1524.93,-267.38"/>
<polygon fill="#475569" stroke="#475569" points="1524.64,-269.82 1531.71,-267.58 1524.79,-264.92 1524.64,-269.82"/>
</g>
<!-- session_queue -->
<g id="node19" class="node">
<title>session_queue</title>
<path fill="#f8fafc" stroke="#64748b" d="M1879.87,-362C1879.87,-362 1773.1,-362 1773.1,-362 1767.1,-362 1761.1,-356 1761.1,-350 1761.1,-350 1761.1,-338 1761.1,-338 1761.1,-332 1767.1,-326 1773.1,-326 1773.1,-326 1879.87,-326 1879.87,-326 1885.87,-326 1891.87,-332 1891.87,-338 1891.87,-338 1891.87,-350 1891.87,-350 1891.87,-356 1885.87,-362 1879.87,-362"/>
<text text-anchor="middle" x="1826.49" y="-347.25" font-family="DejaVu Sans" font-size="10.00">SessionCommandQueue</text>
<text text-anchor="middle" x="1826.49" y="-334.5" font-family="DejaVu Sans" font-size="10.00">bounded FIFO</text>
</g>
<!-- fanin_host&#45;&gt;session_queue -->
<g id="edge18" class="edge">
<title>fanin_host&#45;&gt;session_queue</title>
<path fill="none" stroke="#475569" d="M1668.5,-293.83C1687.69,-301.67 1709.43,-310.12 1729.6,-317 1737.09,-319.55 1744.96,-322.06 1752.85,-324.45"/>
<polygon fill="#475569" stroke="#475569" points="1751.86,-326.71 1759.27,-326.36 1753.26,-322.01 1751.86,-326.71"/>
</g>
<!-- session_owner -->
<g id="node20" class="node">
<title>session_owner</title>
<path fill="#f8fafc" stroke="#64748b" d="M1875,-308C1875,-308 1777.98,-308 1777.98,-308 1771.98,-308 1765.98,-302 1765.98,-296 1765.98,-296 1765.98,-284 1765.98,-284 1765.98,-278 1771.98,-272 1777.98,-272 1777.98,-272 1875,-272 1875,-272 1881,-272 1887,-278 1887,-284 1887,-284 1887,-296 1887,-296 1887,-302 1881,-308 1875,-308"/>
<text text-anchor="middle" x="1826.49" y="-293.25" font-family="DejaVu Sans" font-size="10.00">SessionOwner</text>
<text text-anchor="middle" x="1826.49" y="-280.5" font-family="DejaVu Sans" font-size="10.00">single&#45;threaded owner</text>
</g>
<!-- fanin_host&#45;&gt;session_owner -->
<g id="edge19" class="edge">
<title>fanin_host&#45;&gt;session_owner</title>
<path fill="none" stroke="#475569" d="M1690.81,-277.33C1712.58,-279.38 1736.05,-281.59 1757.21,-283.58"/>
<polygon fill="#475569" stroke="#475569" points="1756.8,-286 1764,-284.22 1757.26,-281.12 1756.8,-286"/>
</g>
<!-- audio_lifecycle -->
<g id="node24" class="node">
<title>audio_lifecycle</title>
<path fill="#f8fafc" stroke="#64748b" d="M1911.37,-254C1911.37,-254 1741.6,-254 1741.6,-254 1735.6,-254 1729.6,-248 1729.6,-242 1729.6,-242 1729.6,-230 1729.6,-230 1729.6,-224 1735.6,-218 1741.6,-218 1741.6,-218 1911.37,-218 1911.37,-218 1917.37,-218 1923.37,-224 1923.37,-230 1923.37,-230 1923.37,-242 1923.37,-242 1923.37,-248 1917.37,-254 1911.37,-254"/>
<text text-anchor="middle" x="1826.49" y="-232.88" font-family="DejaVu Sans" font-size="10.00">start/stopSessionFanInHostAudioWith</text>
</g>
<!-- fanin_host&#45;&gt;audio_lifecycle -->
<g id="edge20" class="edge">
<title>fanin_host&#45;&gt;audio_lifecycle</title>
<path fill="none" stroke="#475569" d="M1690.81,-257.53C1700.73,-255.95 1711,-254.31 1721.24,-252.67"/>
<polygon fill="#475569" stroke="#475569" points="1721.42,-255.12 1727.95,-251.6 1720.65,-250.28 1721.42,-255.12"/>
</g>
<!-- step_owner -->
<g id="node21" class="node">
<title>step_owner</title>
<path fill="#f8fafc" stroke="#64748b" d="M2090.39,-342C2090.39,-342 2012.87,-342 2012.87,-342 2006.87,-342 2000.87,-336 2000.87,-330 2000.87,-330 2000.87,-318 2000.87,-318 2000.87,-312 2006.87,-306 2012.87,-306 2012.87,-306 2090.39,-306 2090.39,-306 2096.39,-306 2102.39,-312 2102.39,-318 2102.39,-318 2102.39,-330 2102.39,-330 2102.39,-336 2096.39,-342 2090.39,-342"/>
<text text-anchor="middle" x="2051.63" y="-320.88" font-family="DejaVu Sans" font-size="10.00">stepSessionOwner</text>
</g>
<!-- session_owner&#45;&gt;step_owner -->
<g id="edge21" class="edge">
<title>session_owner&#45;&gt;step_owner</title>
<path fill="none" stroke="#475569" d="M1887.28,-299.11C1919.89,-304.08 1960.08,-310.2 1992.44,-315.13"/>
<polygon fill="#475569" stroke="#475569" points="1991.7,-317.5 1998.99,-316.13 1992.44,-312.66 1991.7,-317.5"/>
</g>
<!-- owner_divergence -->
<g id="node40" class="node">
<title>owner_divergence</title>
<path fill="#fef2f2" stroke="#64748b" d="M2485.54,-454.44C2485.54,-454.44 2321.02,-454.44 2321.02,-454.44 2315.02,-454.44 2309.02,-448.44 2309.02,-442.44 2309.02,-442.44 2309.02,-419.56 2309.02,-419.56 2309.02,-413.56 2315.02,-407.56 2321.02,-407.56 2321.02,-407.56 2485.54,-407.56 2485.54,-407.56 2491.54,-407.56 2497.54,-413.56 2497.54,-419.56 2497.54,-419.56 2497.54,-442.44 2497.54,-442.44 2497.54,-448.44 2491.54,-454.44 2485.54,-454.44"/>
<text text-anchor="middle" x="2403.28" y="-440.62" font-family="DejaVu Sans" font-size="10.00">SessionOwner divergence</text>
<text text-anchor="middle" x="2403.28" y="-427.88" font-family="DejaVu Sans" font-size="10.00">on install failure / backend stopped /</text>
<text text-anchor="middle" x="2403.28" y="-415.12" font-family="DejaVu Sans" font-size="10.00">commit mismatch / protocol bug</text>
</g>
<!-- session_owner&#45;&gt;owner_divergence -->
<g id="edge50" class="edge">
<title>session_owner&#45;&gt;owner_divergence</title>
<path fill="none" stroke="#475569" stroke-dasharray="5,2" d="M1887.37,-300.99C1899.86,-304.86 1912.52,-310.05 1923.37,-317 1940.1,-327.71 1935.14,-341.13 1952.37,-351 2010.29,-384.19 2186.48,-408.31 2300.42,-420.95"/>
<polygon fill="#475569" stroke="#475569" points="2300.12,-423.38 2307.35,-421.71 2300.66,-418.51 2300.12,-423.38"/>
</g>
<!-- session_step -->
<g id="node22" class="node">
<title>session_step</title>
<path fill="#f8fafc" stroke="#64748b" d="M2467.16,-362C2467.16,-362 2339.39,-362 2339.39,-362 2333.39,-362 2327.39,-356 2327.39,-350 2327.39,-350 2327.39,-338 2327.39,-338 2327.39,-332 2333.39,-326 2339.39,-326 2339.39,-326 2467.16,-326 2467.16,-326 2473.16,-326 2479.16,-332 2479.16,-338 2479.16,-338 2479.16,-350 2479.16,-350 2479.16,-356 2473.16,-362 2467.16,-362"/>
<text text-anchor="middle" x="2403.28" y="-347.25" font-family="DejaVu Sans" font-size="10.00">stepSessionCommand</text>
<text text-anchor="middle" x="2403.28" y="-334.5" font-family="DejaVu Sans" font-size="10.00">admit &#45;&gt; runtime &#45;&gt; commit</text>
</g>
<!-- step_owner&#45;&gt;session_step -->
<g id="edge22" class="edge">
<title>step_owner&#45;&gt;session_step</title>
<path fill="none" stroke="#475569" d="M2102.79,-326.46C2148.9,-328.77 2219.14,-332.39 2280.14,-336 2292.58,-336.74 2305.73,-337.55 2318.62,-338.38"/>
<polygon fill="#475569" stroke="#475569" points="2318.38,-340.82 2325.52,-338.82 2318.7,-335.93 2318.38,-340.82"/>
</g>
<!-- session_state -->
<g id="node23" class="node">
<title>session_state</title>
<path fill="#f8fafc" stroke="#64748b" d="M2715.18,-362C2715.18,-362 2557.41,-362 2557.41,-362 2551.41,-362 2545.41,-356 2545.41,-350 2545.41,-350 2545.41,-338 2545.41,-338 2545.41,-332 2551.41,-326 2557.41,-326 2557.41,-326 2715.18,-326 2715.18,-326 2721.18,-326 2727.18,-332 2727.18,-338 2727.18,-338 2727.18,-350 2727.18,-350 2727.18,-356 2721.18,-362 2715.18,-362"/>
<text text-anchor="middle" x="2636.3" y="-347.25" font-family="DejaVu Sans" font-size="10.00">SessionState</text>
<text text-anchor="middle" x="2636.3" y="-334.5" font-family="DejaVu Sans" font-size="10.00">TemplateGraph + voices + resolve</text>
</g>
<!-- session_step&#45;&gt;session_state -->
<g id="edge23" class="edge">
<title>session_step&#45;&gt;session_state</title>
<path fill="none" stroke="#475569" d="M2479.6,-344C2497.84,-344 2517.6,-344 2536.73,-344"/>
<polygon fill="#475569" stroke="#475569" points="2536.66,-346.45 2543.66,-344 2536.66,-341.55 2536.66,-346.45"/>
</g>
<!-- run_hot_swap -->
<g id="node34" class="node">
<title>run_hot_swap</title>
<path fill="#f8fafc" stroke="#64748b" d="M2115.89,-510C2115.89,-510 1987.37,-510 1987.37,-510 1981.37,-510 1975.37,-504 1975.37,-498 1975.37,-498 1975.37,-486 1975.37,-486 1975.37,-480 1981.37,-474 1987.37,-474 1987.37,-474 2115.89,-474 2115.89,-474 2121.89,-474 2127.89,-480 2127.89,-486 2127.89,-486 2127.89,-498 2127.89,-498 2127.89,-504 2121.89,-510 2115.89,-510"/>
<text text-anchor="middle" x="2051.63" y="-488.88" font-family="DejaVu Sans" font-size="10.00">RTGraphAdapter.runHotSwap</text>
</g>
<!-- session_step&#45;&gt;run_hot_swap -->
<g id="edge40" class="edge">
<title>session_step&#45;&gt;run_hot_swap</title>
<path fill="none" stroke="#475569" d="M2359.91,-362.45C2336.42,-372.66 2306.68,-385.57 2280.14,-397 2227.2,-419.81 2211.06,-419.62 2160.89,-448 2152.3,-452.86 2151.65,-456.46 2142.89,-461 2136.3,-464.42 2129.25,-467.58 2122.11,-470.49"/>
<polygon fill="#475569" stroke="#475569" points="2121.37,-468.15 2115.75,-472.98 2123.16,-472.71 2121.37,-468.15"/>
</g>
<!-- reload_host -->
<g id="node25" class="node">
<title>reload_host</title>
<path fill="#f8fafc" stroke="#64748b" d="M179.02,-169C179.02,-169 28,-169 28,-169 22,-169 16,-163 16,-157 16,-157 16,-145 16,-145 16,-139 22,-133 28,-133 28,-133 179.02,-133 179.02,-133 185.02,-133 191.02,-139 191.02,-145 191.02,-145 191.02,-157 191.02,-157 191.02,-163 185.02,-169 179.02,-169"/>
<text text-anchor="middle" x="103.51" y="-154.25" font-family="DejaVu Sans" font-size="10.00">reloadManifestStoppedAudioHost</text>
<text text-anchor="middle" x="103.51" y="-141.5" font-family="DejaVu Sans" font-size="10.00">ManifestReloadHost</text>
</g>
<!-- host_ops -->
<g id="node26" class="node">
<title>host_ops</title>
<path fill="#f8fafc" stroke="#64748b" d="M525.04,-147C525.04,-147 395.02,-147 395.02,-147 389.02,-147 383.02,-141 383.02,-135 383.02,-135 383.02,-123 383.02,-123 383.02,-117 389.02,-111 395.02,-111 395.02,-111 525.04,-111 525.04,-111 531.04,-111 537.04,-117 537.04,-123 537.04,-123 537.04,-135 537.04,-135 537.04,-141 531.04,-147 525.04,-147"/>
<text text-anchor="middle" x="460.03" y="-132.25" font-family="DejaVu Sans" font-size="10.00">manifestReloadHostOps</text>
<text text-anchor="middle" x="460.03" y="-119.5" font-family="DejaVu Sans" font-size="10.00">HostStoppedAudioReloadOps</text>
</g>
<!-- reload_host&#45;&gt;host_ops -->
<g id="edge24" class="edge">
<title>reload_host&#45;&gt;host_ops</title>
<path fill="none" stroke="#475569" d="M191.24,-145.62C246.9,-142.16 318.85,-137.7 374.15,-134.27"/>
<polygon fill="#475569" stroke="#475569" points="374.19,-136.72 381.02,-133.84 373.89,-131.83 374.19,-136.72"/>
</g>
<!-- stopped_orchestrator -->
<g id="node27" class="node">
<title>stopped_orchestrator</title>
<path fill="#f8fafc" stroke="#64748b" d="M788.18,-137.44C788.18,-137.44 621.41,-137.44 621.41,-137.44 615.41,-137.44 609.41,-131.44 609.41,-125.44 609.41,-125.44 609.41,-102.56 609.41,-102.56 609.41,-96.56 615.41,-90.56 621.41,-90.56 621.41,-90.56 788.18,-90.56 788.18,-90.56 794.18,-90.56 800.18,-96.56 800.18,-102.56 800.18,-102.56 800.18,-125.44 800.18,-125.44 800.18,-131.44 794.18,-137.44 788.18,-137.44"/>
<text text-anchor="middle" x="704.79" y="-123.62" font-family="DejaVu Sans" font-size="10.00">orchestrateHostStoppedAudioReload</text>
<text text-anchor="middle" x="704.79" y="-110.88" font-family="DejaVu Sans" font-size="10.00">plan &#45;&gt; quiesce &#45;&gt; drain &#45;&gt;</text>
<text text-anchor="middle" x="704.79" y="-98.12" font-family="DejaVu Sans" font-size="10.00">stop &#45;&gt; reload &#45;&gt; start &#45;&gt; reopen</text>
</g>
<!-- host_ops&#45;&gt;stopped_orchestrator -->
<g id="edge25" class="edge">
<title>host_ops&#45;&gt;stopped_orchestrator</title>
<path fill="none" stroke="#475569" d="M537.51,-124.27C557.51,-123.04 579.4,-121.69 600.54,-120.38"/>
<polygon fill="#475569" stroke="#475569" points="600.57,-122.83 607.4,-119.96 600.26,-117.94 600.57,-122.83"/>
</g>
<!-- stopped_orchestrator&#45;&gt;plan_manifest -->
<g id="edge26" class="edge">
<title>stopped_orchestrator&#45;&gt;plan_manifest</title>
<path fill="none" stroke="#475569" d="M715.31,-137.82C744.18,-208.05 836.27,-418.21 958.79,-560 979.38,-583.82 1007.59,-605.51 1030.01,-620.88"/>
<polygon fill="#475569" stroke="#475569" points="1028.64,-622.91 1035.81,-624.8 1031.38,-618.85 1028.64,-622.91"/>
<text text-anchor="middle" x="888.29" y="-530.65" font-family="DejaVu Sans" font-size="9.00">prepare plan</text>
</g>
<!-- stopped_orchestrator&#45;&gt;audio_lifecycle -->
<g id="edge30" class="edge">
<title>stopped_orchestrator&#45;&gt;audio_lifecycle</title>
<path fill="none" stroke="#475569" d="M738.86,-90.06C764.18,-72.91 800.62,-50.68 835.79,-38 933.62,-2.72 962.68,0 1066.68,0 1066.68,0 1066.68,0 1612.84,0 1725,0 1793.16,-148.94 1816.44,-210.18"/>
<polygon fill="#475569" stroke="#475569" points="1814.04,-210.75 1818.78,-216.45 1818.63,-209.04 1814.04,-210.75"/>
<text text-anchor="middle" x="1380.7" y="-2.7" font-family="DejaVu Sans" font-size="9.00">stop old / start new</text>
</g>
<!-- ingress -->
<g id="node28" class="node">
<title>ingress</title>
<path fill="#f8fafc" stroke="#64748b" d="M1127.81,-64C1127.81,-64 1007.54,-64 1007.54,-64 1001.54,-64 995.54,-58 995.54,-52 995.54,-52 995.54,-40 995.54,-40 995.54,-34 1001.54,-28 1007.54,-28 1007.54,-28 1127.81,-28 1127.81,-28 1133.81,-28 1139.81,-34 1139.81,-40 1139.81,-40 1139.81,-52 1139.81,-52 1139.81,-58 1133.81,-64 1127.81,-64"/>
<text text-anchor="middle" x="1067.68" y="-49.25" font-family="DejaVu Sans" font-size="10.00">ManifestReloadIngress</text>
<text text-anchor="middle" x="1067.68" y="-36.5" font-family="DejaVu Sans" font-size="10.00">close / resume / open&#45;fresh</text>
</g>
<!-- stopped_orchestrator&#45;&gt;ingress -->
<g id="edge27" class="edge">
<title>stopped_orchestrator&#45;&gt;ingress</title>
<path fill="none" stroke="#475569" d="M800.61,-96.13C858.61,-85.2 931.98,-71.38 986.98,-61.02"/>
<polygon fill="#475569" stroke="#475569" points="987.38,-63.43 993.81,-59.73 986.47,-58.62 987.38,-63.43"/>
<text text-anchor="middle" x="888.29" y="-90.79" font-family="DejaVu Sans" font-size="9.00">quiesce</text>
</g>
<!-- stopped_orchestrator&#45;&gt;ingress -->
<g id="edge37" class="edge">
<title>stopped_orchestrator&#45;&gt;ingress</title>
<path fill="none" stroke="#475569" d="M747.04,-90.17C771.89,-77.12 804.66,-62.13 835.79,-54.75 885.12,-43.06 942.01,-40.78 986.98,-41.46"/>
<polygon fill="#475569" stroke="#475569" points="986.68,-43.91 993.72,-41.6 986.77,-39.01 986.68,-43.91"/>
<text text-anchor="middle" x="888.29" y="-57.45" font-family="DejaVu Sans" font-size="9.00">reopen or resume</text>
</g>
<!-- quiesce_drain -->
<g id="node29" class="node">
<title>quiesce_drain</title>
<path fill="#f8fafc" stroke="#64748b" d="M1152.19,-118C1152.19,-118 983.17,-118 983.17,-118 977.17,-118 971.17,-112 971.17,-106 971.17,-106 971.17,-94 971.17,-94 971.17,-88 977.17,-82 983.17,-82 983.17,-82 1152.19,-82 1152.19,-82 1158.19,-82 1164.19,-88 1164.19,-94 1164.19,-94 1164.19,-106 1164.19,-106 1164.19,-112 1158.19,-118 1152.19,-118"/>
<text text-anchor="middle" x="1067.68" y="-96.88" font-family="DejaVu Sans" font-size="10.00">quiesceAndDrainSessionFanInService</text>
</g>
<!-- stopped_orchestrator&#45;&gt;quiesce_drain -->
<g id="edge28" class="edge">
<title>stopped_orchestrator&#45;&gt;quiesce_drain</title>
<path fill="none" stroke="#475569" d="M800.61,-110.32C850.36,-108.39 911.42,-106.02 962.49,-104.04"/>
<polygon fill="#475569" stroke="#475569" points="962.51,-106.49 969.41,-103.77 962.32,-101.6 962.51,-106.49"/>
<text text-anchor="middle" x="888.29" y="-111.37" font-family="DejaVu Sans" font-size="9.00">drain live queue</text>
</g>
<!-- stopped_orchestrator&#45;&gt;reload_stopped -->
<g id="edge31" class="edge">
<title>stopped_orchestrator&#45;&gt;reload_stopped</title>
<path fill="none" stroke="#475569" d="M800.61,-124.51C850.86,-130.08 912.65,-136.93 964.02,-142.62"/>
<polygon fill="#475569" stroke="#475569" points="963.45,-145.02 970.67,-143.36 963.99,-140.15 963.45,-145.02"/>
<text text-anchor="middle" x="888.29" y="-142.62" font-family="DejaVu Sans" font-size="9.00">with audio stopped</text>
</g>
<!-- quiesce_drain&#45;&gt;fanin_service -->
<g id="edge29" class="edge">
<title>quiesce_drain&#45;&gt;fanin_service</title>
<path fill="none" stroke="#475569" d="M1157.11,-118.43C1163.83,-120.94 1170.4,-123.79 1176.56,-127 1223.97,-151.73 1222.96,-176.12 1267.31,-206 1286.78,-219.11 1309.67,-231.25 1329.69,-240.92"/>
<polygon fill="#475569" stroke="#475569" points="1328.47,-243.05 1335.85,-243.85 1330.58,-238.63 1328.47,-243.05"/>
</g>
<!-- reload_stopped&#45;&gt;owner_options_projection -->
<g id="edge32" class="edge">
<title>reload_stopped&#45;&gt;owner_options_projection</title>
<path fill="none" stroke="#475569" d="M1077.39,-172.25C1100.71,-218.81 1169.46,-342.14 1267.31,-396 1356.28,-444.97 1419.92,-354.62 1494.08,-424 1557.86,-483.67 1473.69,-551.16 1531.08,-617 1532.16,-618.24 1533.3,-619.42 1534.49,-620.55"/>
<polygon fill="#475569" stroke="#475569" points="1532.71,-622.26 1539.68,-624.8 1535.81,-618.47 1532.71,-622.26"/>
</g>
<!-- fanin_reload -->
<g id="node31" class="node">
<title>fanin_reload</title>
<path fill="#f8fafc" stroke="#64748b" d="M1482.08,-172.44C1482.08,-172.44 1279.31,-172.44 1279.31,-172.44 1273.31,-172.44 1267.31,-166.44 1267.31,-160.44 1267.31,-160.44 1267.31,-137.56 1267.31,-137.56 1267.31,-131.56 1273.31,-125.56 1279.31,-125.56 1279.31,-125.56 1482.08,-125.56 1482.08,-125.56 1488.08,-125.56 1494.08,-131.56 1494.08,-137.56 1494.08,-137.56 1494.08,-160.44 1494.08,-160.44 1494.08,-166.44 1488.08,-172.44 1482.08,-172.44"/>
<text text-anchor="middle" x="1380.7" y="-158.62" font-family="DejaVu Sans" font-size="10.00">reloadSessionFanInHostOwnerStoppedAudio</text>
<text text-anchor="middle" x="1380.7" y="-145.88" font-family="DejaVu Sans" font-size="10.00">replace owner only after queue empty</text>
<text text-anchor="middle" x="1380.7" y="-133.12" font-family="DejaVu Sans" font-size="10.00">and audio stopped</text>
</g>
<!-- reload_stopped&#45;&gt;fanin_reload -->
<g id="edge33" class="edge">
<title>reload_stopped&#45;&gt;fanin_reload</title>
<path fill="none" stroke="#475569" d="M1162.84,-152.49C1192.95,-152 1226.73,-151.46 1258.49,-150.95"/>
<polygon fill="#475569" stroke="#475569" points="1258.48,-153.4 1265.44,-150.84 1258.4,-148.5 1258.48,-153.4"/>
</g>
<!-- fanin_reload&#45;&gt;fanin_host -->
<g id="edge34" class="edge">
<title>fanin_reload&#45;&gt;fanin_host</title>
<path fill="none" stroke="#475569" d="M1429.72,-172.93C1449.7,-183 1473.08,-194.93 1494.08,-206 1516.02,-217.57 1540.09,-230.69 1560.64,-242.03"/>
<polygon fill="#475569" stroke="#475569" points="1559.4,-244.14 1566.72,-245.38 1561.77,-239.85 1559.4,-244.14"/>
</g>
<!-- release_acquire -->
<g id="node32" class="node">
<title>release_acquire</title>
<path fill="#f8fafc" stroke="#64748b" d="M1651.73,-170C1651.73,-170 1571.96,-170 1571.96,-170 1565.96,-170 1559.96,-164 1559.96,-158 1559.96,-158 1559.96,-146 1559.96,-146 1559.96,-140 1565.96,-134 1571.96,-134 1571.96,-134 1651.73,-134 1651.73,-134 1657.73,-134 1663.73,-140 1663.73,-146 1663.73,-146 1663.73,-158 1663.73,-158 1663.73,-164 1657.73,-170 1651.73,-170"/>
<text text-anchor="middle" x="1611.84" y="-155.25" font-family="DejaVu Sans" font-size="10.00">release old owner</text>
<text text-anchor="middle" x="1611.84" y="-142.5" font-family="DejaVu Sans" font-size="10.00">acquire new owner</text>
</g>
<!-- fanin_reload&#45;&gt;release_acquire -->
<g id="edge35" class="edge">
<title>fanin_reload&#45;&gt;release_acquire</title>
<path fill="none" stroke="#475569" d="M1494.25,-150.47C1513.9,-150.73 1533.63,-150.99 1551.12,-151.22"/>
<polygon fill="#475569" stroke="#475569" points="1550.98,-153.67 1558.01,-151.31 1551.04,-148.77 1550.98,-153.67"/>
</g>
<!-- release_acquire&#45;&gt;session_owner -->
<g id="edge36" class="edge">
<title>release_acquire&#45;&gt;session_owner</title>
<path fill="none" stroke="#475569" d="M1646.12,-170.36C1661.37,-179.77 1679.02,-192.15 1692.6,-206 1713.75,-227.56 1705.28,-245.09 1729.6,-263 1737.95,-269.15 1747.65,-273.9 1757.61,-277.57"/>
<polygon fill="#475569" stroke="#475569" points="1756.78,-279.88 1764.2,-279.8 1758.35,-275.23 1756.78,-279.88"/>
</g>
<!-- admit_hot_swap&#45;&gt;session_step -->
<g id="edge39" class="edge">
<title>admit_hot_swap&#45;&gt;session_step</title>
<path fill="none" stroke="#475569" d="M2102.66,-415.58C2120.85,-409.23 2141.67,-402.38 2160.89,-397 2212.83,-382.47 2271.96,-369.43 2318.7,-359.92"/>
<polygon fill="#475569" stroke="#475569" points="2319.12,-362.34 2325.5,-358.55 2318.15,-357.53 2319.12,-362.34"/>
</g>
<!-- preserving_probe -->
<g id="node35" class="node">
<title>preserving_probe</title>
<path fill="#f8fafc" stroke="#64748b" d="M2496.41,-519.45C2496.41,-519.45 2310.14,-519.45 2310.14,-519.45 2304.14,-519.45 2298.14,-513.45 2298.14,-507.45 2298.14,-507.45 2298.14,-484.56 2298.14,-484.56 2298.14,-478.56 2304.14,-472.56 2310.14,-472.56 2310.14,-472.56 2496.41,-472.56 2496.41,-472.56 2502.41,-472.56 2508.41,-478.56 2508.41,-484.56 2508.41,-484.56 2508.41,-507.45 2508.41,-507.45 2508.41,-513.45 2502.41,-519.45 2496.41,-519.45"/>
<text text-anchor="middle" x="2403.28" y="-505.62" font-family="DejaVu Sans" font-size="10.00">preservingHotSwapPlan</text>
<text text-anchor="middle" x="2403.28" y="-492.88" font-family="DejaVu Sans" font-size="10.00">current RTGraphAdapterState +</text>
<text text-anchor="middle" x="2403.28" y="-480.12" font-family="DejaVu Sans" font-size="10.00">target TemplateGraph + resolve preview</text>
</g>
<!-- run_hot_swap&#45;&gt;preserving_probe -->
<g id="edge41" class="edge">
<title>run_hot_swap&#45;&gt;preserving_probe</title>
<path fill="none" stroke="#475569" d="M2128.07,-492.86C2175.14,-493.4 2236.6,-494.1 2289.4,-494.71"/>
<polygon fill="#475569" stroke="#475569" points="2289.25,-497.16 2296.28,-494.79 2289.31,-492.26 2289.25,-497.16"/>
<text text-anchor="middle" x="2220.52" y="-497.29" font-family="DejaVu Sans" font-size="9.00">if preserved bindings exist</text>
</g>
<!-- fallback_clear -->
<g id="node39" class="node">
<title>fallback_clear</title>
<path fill="#fff7ed" stroke="#64748b" d="M2454.79,-584.45C2454.79,-584.45 2351.77,-584.45 2351.77,-584.45 2345.77,-584.45 2339.77,-578.45 2339.77,-572.45 2339.77,-572.45 2339.77,-549.55 2339.77,-549.55 2339.77,-543.55 2345.77,-537.55 2351.77,-537.55 2351.77,-537.55 2454.79,-537.55 2454.79,-537.55 2460.79,-537.55 2466.79,-543.55 2466.79,-549.55 2466.79,-549.55 2466.79,-572.45 2466.79,-572.45 2466.79,-578.45 2460.79,-584.45 2454.79,-584.45"/>
<text text-anchor="middle" x="2403.28" y="-570.62" font-family="DejaVu Sans" font-size="10.00">non&#45;preserving fallback</text>
<text text-anchor="middle" x="2403.28" y="-557.88" font-family="DejaVu Sans" font-size="10.00">installSessionGraph</text>
<text text-anchor="middle" x="2403.28" y="-545.12" font-family="DejaVu Sans" font-size="10.00">stop/clear/rebuild</text>
</g>
<!-- run_hot_swap&#45;&gt;fallback_clear -->
<g id="edge47" class="edge">
<title>run_hot_swap&#45;&gt;fallback_clear</title>
<path fill="none" stroke="#475569" d="M2128.07,-506.89C2188.37,-518.79 2272.29,-535.35 2331.37,-547.01"/>
<polygon fill="#475569" stroke="#475569" points="2330.71,-549.37 2338.05,-548.33 2331.65,-544.57 2330.71,-549.37"/>
<text text-anchor="middle" x="2220.52" y="-539.41" font-family="DejaVu Sans" font-size="9.00">if no preserved bindings</text>
</g>
<!-- run_hot_swap&#45;&gt;owner_divergence -->
<g id="edge49" class="edge">
<title>run_hot_swap&#45;&gt;owner_divergence</title>
<path fill="none" stroke="#475569" stroke-dasharray="5,2" d="M2128.07,-478.84C2178.38,-470.06 2245.15,-458.41 2300.2,-448.81"/>
<polygon fill="#475569" stroke="#475569" points="2300.61,-451.22 2307.09,-447.61 2299.77,-446.4 2300.61,-451.22"/>
<text text-anchor="middle" x="2220.52" y="-474.97" font-family="DejaVu Sans" font-size="9.00">terminal failures</text>
</g>
<!-- preserving_builder -->
<g id="node36" class="node">
<title>preserving_builder</title>
<path fill="#f8fafc" stroke="#64748b" d="M2692.68,-525C2692.68,-525 2579.91,-525 2579.91,-525 2573.91,-525 2567.91,-519 2567.91,-513 2567.91,-513 2567.91,-501 2567.91,-501 2567.91,-495 2573.91,-489 2579.91,-489 2579.91,-489 2692.68,-489 2692.68,-489 2698.68,-489 2704.68,-495 2704.68,-501 2704.68,-501 2704.68,-513 2704.68,-513 2704.68,-519 2698.68,-525 2692.68,-525"/>
<text text-anchor="middle" x="2636.3" y="-510.25" font-family="DejaVu Sans" font-size="10.00">installPreservingHotSwap</text>
<text text-anchor="middle" x="2636.3" y="-497.5" font-family="DejaVu Sans" font-size="10.00">prepare next world</text>
</g>
<!-- preserving_probe&#45;&gt;preserving_builder -->
<g id="edge42" class="edge">
<title>preserving_probe&#45;&gt;preserving_builder</title>
<path fill="none" stroke="#475569" d="M2508.63,-500.97C2525.64,-501.78 2542.97,-502.6 2559.13,-503.37"/>
<polygon fill="#475569" stroke="#475569" points="2558.85,-505.81 2565.96,-503.7 2559.08,-500.92 2558.85,-505.81"/>
</g>
<!-- live_protocol -->
<g id="node37" class="node">
<title>live_protocol</title>
<path fill="#f8fafc" stroke="#64748b" d="M3034.95,-530.45C3034.95,-530.45 2847.93,-530.45 2847.93,-530.45 2841.93,-530.45 2835.93,-524.45 2835.93,-518.45 2835.93,-518.45 2835.93,-495.56 2835.93,-495.56 2835.93,-489.56 2841.93,-483.56 2847.93,-483.56 2847.93,-483.56 3034.95,-483.56 3034.95,-483.56 3040.95,-483.56 3046.95,-489.56 3046.95,-495.56 3046.95,-495.56 3046.95,-518.45 3046.95,-518.45 3046.95,-524.45 3040.95,-530.45 3034.95,-530.45"/>
<text text-anchor="middle" x="2941.44" y="-516.62" font-family="DejaVu Sans" font-size="10.00">runLiveHotSwapProtocol</text>
<text text-anchor="middle" x="2941.44" y="-503.88" font-family="DejaVu Sans" font-size="10.00">read generation &#45;&gt; acquire &#45;&gt; publish &#45;&gt;</text>
<text text-anchor="middle" x="2941.44" y="-491.12" font-family="DejaVu Sans" font-size="10.00">wait &#45;&gt; collect retired stats &#45;&gt; verify</text>
</g>
<!-- preserving_builder&#45;&gt;live_protocol -->
<g id="edge43" class="edge">
<title>preserving_builder&#45;&gt;live_protocol</title>
<path fill="none" stroke="#475569" d="M2704.95,-507C2740.86,-507 2785.96,-507 2827.05,-507"/>
<polygon fill="#475569" stroke="#475569" points="2826.97,-509.45 2833.97,-507 2826.97,-504.55 2826.97,-509.45"/>
<text text-anchor="middle" x="2781.56" y="-509.7" font-family="DejaVu Sans" font-size="9.00">if audio running</text>
</g>
<!-- scripted_preserving -->
<g id="node38" class="node">
<title>scripted_preserving</title>
<path fill="#f8fafc" stroke="#64748b" d="M2998.2,-584C2998.2,-584 2884.68,-584 2884.68,-584 2878.68,-584 2872.68,-578 2872.68,-572 2872.68,-572 2872.68,-560 2872.68,-560 2872.68,-554 2878.68,-548 2884.68,-548 2884.68,-548 2998.2,-548 2998.2,-548 3004.2,-548 3010.2,-554 3010.2,-560 3010.2,-560 3010.2,-572 3010.2,-572 3010.2,-578 3004.2,-584 2998.2,-584"/>
<text text-anchor="middle" x="2941.44" y="-569.25" font-family="DejaVu Sans" font-size="10.00">scripted preserving path</text>
<text text-anchor="middle" x="2941.44" y="-556.5" font-family="DejaVu Sans" font-size="10.00">when audio is not running</text>
</g>
<!-- preserving_builder&#45;&gt;scripted_preserving -->
<g id="edge44" class="edge">
<title>preserving_builder&#45;&gt;scripted_preserving</title>
<path fill="none" stroke="#475569" d="M2704.95,-520.17C2752.04,-529.33 2814.92,-541.57 2863.86,-551.1"/>
<polygon fill="#475569" stroke="#475569" points="2863.38,-553.5 2870.72,-552.43 2864.32,-548.69 2863.38,-553.5"/>
<text text-anchor="middle" x="2781.56" y="-544.48" font-family="DejaVu Sans" font-size="9.00">if audio stopped</text>
</g>
<!-- live_protocol&#45;&gt;rt_graph -->
<g id="edge45" class="edge">
<title>live_protocol&#45;&gt;rt_graph</title>
<path fill="none" stroke="#475569" d="M3041.12,-530.9C3045.94,-533.35 3050.58,-536.04 3054.95,-539 3086.5,-560.38 3111.34,-597.43 3125.59,-622.33"/>
<polygon fill="#475569" stroke="#475569" points="3123.38,-623.39 3128.94,-628.31 3127.66,-621 3123.38,-623.39"/>
</g>
<!-- scripted_preserving&#45;&gt;rt_graph -->
<g id="edge46" class="edge">
<title>scripted_preserving&#45;&gt;rt_graph</title>
<path fill="none" stroke="#475569" d="M2986.54,-584.4C3016.28,-596.81 3055.63,-613.23 3086.9,-626.28"/>
<polygon fill="#475569" stroke="#475569" points="3085.86,-628.5 3093.27,-628.93 3087.75,-623.98 3085.86,-628.5"/>
</g>
<!-- fallback_clear&#45;&gt;install_graph -->
<g id="edge48" class="edge">
<title>fallback_clear&#45;&gt;install_graph</title>
<path fill="none" stroke="#475569" d="M2467.09,-571.19C2567.08,-587.42 2761.92,-619.03 2867.77,-636.21"/>
<polygon fill="#475569" stroke="#475569" points="2867.06,-638.58 2874.36,-637.28 2867.85,-633.74 2867.06,-638.58"/>
</g>
<!-- preserving_only_mode -->
<g id="node41" class="node">
<title>preserving_only_mode</title>
<path fill="#f1f5f9" stroke="#64748b" stroke-dasharray="5,2" d="M1466.71,-526C1466.71,-526 1294.69,-526 1294.69,-526 1288.69,-526 1282.69,-520 1282.69,-514 1282.69,-514 1282.69,-502 1282.69,-502 1282.69,-496 1288.69,-490 1294.69,-490 1294.69,-490 1466.71,-490 1466.71,-490 1472.71,-490 1478.71,-496 1478.71,-502 1478.71,-502 1478.71,-514 1478.71,-514 1478.71,-520 1472.71,-526 1466.71,-526"/>
<text text-anchor="middle" x="1380.7" y="-511.25" font-family="DejaVu Sans" font-size="10.00">preserving&#45;only command or strategy</text>
<text text-anchor="middle" x="1380.7" y="-498.5" font-family="DejaVu Sans" font-size="10.00">must not fall back to stop/clear</text>
</g>
<!-- preserving_only_mode&#45;&gt;cmd_hot_swap -->
<g id="edge53" class="edge">
<title>preserving_only_mode&#45;&gt;cmd_hot_swap</title>
<path fill="none" stroke="#475569" stroke-dasharray="5,2" d="M1479.14,-524.58C1540.47,-535.19 1621.25,-549.44 1692.6,-563 1708.6,-566.04 1725.66,-569.41 1742.03,-572.71"/>
<polygon fill="#475569" stroke="#475569" points="1741.18,-575.03 1748.52,-574.02 1742.15,-570.23 1741.18,-575.03"/>
</g>
<!-- preserving_manifest_helper&#45;&gt;fanin_host -->
<g id="edge54" class="edge">
<title>preserving_manifest_helper&#45;&gt;fanin_host</title>
<path fill="none" stroke="#475569" stroke-dasharray="5,2" d="M1150.22,-489.51C1159.19,-486.91 1168.12,-484.07 1176.56,-481 1321.75,-428.21 1482.98,-342.07 1561.9,-297.96"/>
<polygon fill="#475569" stroke="#475569" points="1563.04,-300.12 1567.95,-294.56 1560.65,-295.85 1563.04,-300.12"/>
<text text-anchor="middle" x="1380.7" y="-447.04" font-family="DejaVu Sans" font-size="9.00">future locked step</text>
</g>
<!-- preserving_manifest_helper&#45;&gt;preserving_only_mode -->
<g id="edge52" class="edge">
<title>preserving_manifest_helper&#45;&gt;preserving_only_mode</title>
<path fill="none" stroke="#475569" stroke-dasharray="5,2" d="M1177.02,-508C1208.48,-508 1242.79,-508 1274.08,-508"/>
<polygon fill="#475569" stroke="#475569" points="1273.88,-510.45 1280.88,-508 1273.88,-505.55 1273.88,-510.45"/>
</g>
<!-- host_preserving_ops -->
<g id="node43" class="node">
<title>host_preserving_ops</title>
<path fill="#f1f5f9" stroke="#64748b" stroke-dasharray="5,2" d="M799.05,-472C799.05,-472 610.53,-472 610.53,-472 604.53,-472 598.53,-466 598.53,-460 598.53,-460 598.53,-448 598.53,-448 598.53,-442 604.53,-436 610.53,-436 610.53,-436 799.05,-436 799.05,-436 805.05,-436 811.05,-442 811.05,-448 811.05,-448 811.05,-460 811.05,-460 811.05,-466 805.05,-472 799.05,-472"/>
<text text-anchor="middle" x="704.79" y="-457.25" font-family="DejaVu Sans" font-size="10.00">HostPreservingReloadOps</text>
<text text-anchor="middle" x="704.79" y="-444.5" font-family="DejaVu Sans" font-size="10.00">eligibility/fence/submit/wait/verify/rebind</text>
</g>
<!-- host_preserving_ops&#45;&gt;ingress -->
<g id="edge56" class="edge">
<title>host_preserving_ops&#45;&gt;ingress</title>
<path fill="none" stroke="#475569" stroke-dasharray="5,2" d="M721.92,-435.76C770.03,-381.04 910.98,-218.14 940.79,-155 956.72,-121.26 932.79,-99.77 958.79,-73 966.69,-64.86 976.65,-59.04 987.3,-54.9"/>
<polygon fill="#475569" stroke="#475569" points="987.92,-57.27 993.73,-52.66 986.31,-52.65 987.92,-57.27"/>
<text text-anchor="middle" x="888.29" y="-304.02" font-family="DejaVu Sans" font-size="9.00">reuse close/open policy</text>
</g>
<!-- host_preserving_ops&#45;&gt;preserving_manifest_helper -->
<g id="edge55" class="edge">
<title>host_preserving_ops&#45;&gt;preserving_manifest_helper</title>
<path fill="none" stroke="#475569" stroke-dasharray="5,2" d="M811.14,-469.76C854.72,-476.28 905.41,-483.87 950.1,-490.56"/>
<polygon fill="#475569" stroke="#475569" points="949.59,-492.96 956.87,-491.57 950.31,-488.11 949.59,-492.96"/>
</g>
<!-- binding_rebuild -->
<g id="node45" class="node">
<title>binding_rebuild</title>
<path fill="#f1f5f9" stroke="#64748b" stroke-dasharray="5,2" d="M1161.94,-472C1161.94,-472 973.42,-472 973.42,-472 967.42,-472 961.42,-466 961.42,-460 961.42,-460 961.42,-448 961.42,-448 961.42,-442 967.42,-436 973.42,-436 973.42,-436 1161.94,-436 1161.94,-436 1167.94,-436 1173.94,-442 1173.94,-448 1173.94,-448 1173.94,-460 1173.94,-460 1173.94,-466 1167.94,-472 1161.94,-472"/>
<text text-anchor="middle" x="1067.68" y="-457.25" font-family="DejaVu Sans" font-size="10.00">producer/listener binding rebuild contract</text>
<text text-anchor="middle" x="1067.68" y="-444.5" font-family="DejaVu Sans" font-size="10.00">still missing</text>
</g>
<!-- host_preserving_ops&#45;&gt;binding_rebuild -->
<g id="edge57" class="edge">
<title>host_preserving_ops&#45;&gt;binding_rebuild</title>
<path fill="none" stroke="#475569" stroke-dasharray="5,2" d="M811.14,-454C855.6,-454 907.46,-454 952.8,-454"/>
<polygon fill="#475569" stroke="#475569" points="952.68,-456.45 959.68,-454 952.68,-451.55 952.68,-456.45"/>
</g>
<!-- strategy_selector -->
<g id="node44" class="node">
<title>strategy_selector</title>
<path fill="#f1f5f9" stroke="#64748b" stroke-dasharray="5,2" d="M543.79,-472C543.79,-472 376.27,-472 376.27,-472 370.27,-472 364.27,-466 364.27,-460 364.27,-460 364.27,-448 364.27,-448 364.27,-442 370.27,-436 376.27,-436 376.27,-436 543.79,-436 543.79,-436 549.79,-436 555.79,-442 555.79,-448 555.79,-448 555.79,-460 555.79,-460 555.79,-466 549.79,-472 543.79,-472"/>
<text text-anchor="middle" x="460.03" y="-457.25" font-family="DejaVu Sans" font-size="10.00">host strategy selector</text>
<text text-anchor="middle" x="460.03" y="-444.5" font-family="DejaVu Sans" font-size="10.00">prefer preserving &#45;&gt; explicit fallback</text>
</g>
<!-- strategy_selector&#45;&gt;reload_host -->
<g id="edge59" class="edge">
<title>strategy_selector&#45;&gt;reload_host</title>
<path fill="none" stroke="#475569" stroke-dasharray="5,2" d="M437.67,-435.74C376.56,-383.52 201.04,-233.5 132.45,-174.88"/>
<polygon fill="#475569" stroke="#475569" points="134.22,-173.17 127.3,-170.48 131.03,-176.89 134.22,-173.17"/>
<text text-anchor="middle" x="277.65" y="-358.69" font-family="DejaVu Sans" font-size="9.00">explicit stopped&#45;audio fallback</text>
</g>
<!-- strategy_selector&#45;&gt;host_preserving_ops -->
<g id="edge58" class="edge">
<title>strategy_selector&#45;&gt;host_preserving_ops</title>
<path fill="none" stroke="#475569" stroke-dasharray="5,2" d="M556.28,-454C567.39,-454 578.82,-454 590.15,-454"/>
<polygon fill="#475569" stroke="#475569" points="589.87,-456.45 596.87,-454 589.87,-451.55 589.87,-456.45"/>
</g>
</g>
</svg>
